<svg version="1.1" xmlns="http://www.w3.org/2000/svg" viewBox="0 0 1809.1230158730164 1041.2452876984137" width="1809.1230158730164" height="1041.2452876984137">
    <!-- svg-source:excalidraw -->

    <defs>
        <style class="style-fonts">
            @font-face {
            font-family: "Virgil";
            src: url("https://excalidraw.com/Virgil.woff2");
            }
            @font-face {
            font-family: "Cascadia";
            src: url("https://excalidraw.com/Cascadia.woff2");
            }
        </style>

    </defs>
    <rect x="0" y="0" width="1809.1230158730164" height="1041.2452876984137" fill="#ffffff"></rect><g stroke-linecap="round" transform="translate(485.83333333333417 367.8147321428577) rotate(0 103.5 30)"><path d="M15 0 M15 0 C77.37 2.24, 137.14 0.17, 192 0 M15 0 C55.19 1, 93.92 1.28, 192 0 M192 0 C203.75 0.54, 205.88 5.6, 207 15 M192 0 C200.32 -0.33, 205.16 6.95, 207 15 M207 15 C205.63 26.65, 205.36 38.62, 207 45 M207 15 C207.41 26.71, 207.09 38.53, 207 45 M207 45 C206.25 53.89, 202.78 61.04, 192 60 M207 45 C206.57 56.11, 203.55 58.65, 192 60 M192 60 C133.3 59.95, 74.15 61.68, 15 60 M192 60 C124.3 61.4, 55.07 62.26, 15 60 M15 60 C4.27 61.55, -0.68 56.85, 0 45 M15 60 C3.57 57.8, 1.79 55.31, 0 45 M0 45 C0.75 34.11, 1.26 27.24, 0 15 M0 45 C0.84 36.37, 0.95 28.38, 0 15 M0 15 C-1.1 3.47, 6.35 1.45, 15 0 M0 15 C0.08 3.25, 4.89 -1.22, 15 0" stroke="#1e1e1e" stroke-width="2" fill="none"></path></g><g transform="translate(500.9434254964201 385.3147321428577) rotate(0 88.38990783691406 12.5)"><text x="88.38990783691406" y="0" font-family="Virgil, Segoe UI Emoji" font-size="20px" fill="#1e1e1e" text-anchor="middle" style="white-space: pre;" direction="ltr" dominant-baseline="text-before-edge">code.editor.ui.pane</text></g><g stroke-linecap="round" transform="translate(41.84126984127033 866.2909226190487) rotate(0 103.5 30)"><path d="M15 0 M15 0 C67.83 0.34, 125.4 -0.71, 192 0 M15 0 C77.23 0.17, 139.69 0.29, 192 0 M192 0 C202.06 0.12, 208.03 3.22, 207 15 M192 0 C200.54 0.86, 207.8 4.59, 207 15 M207 15 C206.46 23.91, 208.34 34.51, 207 45 M207 15 C205.98 26.2, 207.2 36.04, 207 45 M207 45 C208.77 55.98, 200.37 59.13, 192 60 M207 45 C205.98 57.08, 201.33 61.48, 192 60 M192 60 C139.06 61.37, 85.83 59.21, 15 60 M192 60 C121.65 59.34, 53.18 58.8, 15 60 M15 60 C4.9 59.3, 1.12 55.69, 0 45 M15 60 C6.37 57.84, 2.21 57.02, 0 45 M0 45 C-2.12 32.69, 1.33 21.53, 0 15 M0 45 C-0.75 37.17, 1.18 28.15, 0 15 M0 15 C-0.82 4.41, 4.78 -0.32, 15 0 M0 15 C0.84 4.42, 5.85 0.42, 15 0" stroke="#1e1e1e" stroke-width="2" fill="none"></path></g><g transform="translate(56.971351018028145 883.7909226190487) rotate(0 88.36991882324219 12.5)"><text x="88.36991882324219" y="0" font-family="Virgil, Segoe UI Emoji" font-size="20px" fill="#1e1e1e" text-anchor="middle" style="white-space: pre;" direction="ltr" dominant-baseline="text-before-edge">code.editor.javafx</text></g><g stroke-linecap="round" transform="translate(1522.8412698412708 895.485367063493) rotate(0 118 30)"><path d="M15 0 M15 0 C75.84 -2.35, 134.58 -0.58, 221 0 M15 0 C77.67 -1.92, 140.55 -1.72, 221 0 M221 0 C229.44 0.22, 235.2 3.96, 236 15 M221 0 C229.15 1.63, 235.23 5.3, 236 15 M236 15 C235.59 25.89, 235.76 37.96, 236 45 M236 15 C235.85 22.29, 236.66 28.95, 236 45 M236 45 C237 56.68, 230.01 61.2, 221 60 M236 45 C237.66 54.34, 231.58 60.43, 221 60 M221 60 C152.06 61.81, 86.31 62.43, 15 60 M221 60 C165.65 59.83, 109.43 58.91, 15 60 M15 60 C6.32 59.38, 1.09 54.82, 0 45 M15 60 C6.81 58.17, -1.85 55.03, 0 45 M0 45 C-1.08 38.71, 1.13 28.6, 0 15 M0 45 C1.05 36.34, 0.78 29.6, 0 15 M0 15 C-0.04 4.31, 5.77 0.3, 15 0 M0 15 C0.46 4.81, 5.41 1.32, 15 0" stroke="#1e1e1e" stroke-width="2" fill="none"></path></g><g transform="translate(1534.011382451134 912.985367063493) rotate(0 106.82988739013672 12.5)"><text x="106.82988739013672" y="0" font-family="Virgil, Segoe UI Emoji" font-size="20px" fill="#1e1e1e" text-anchor="middle" style="white-space: pre;" direction="ltr" dominant-baseline="text-before-edge">code.editor.model.text</text></g><g stroke-linecap="round" transform="translate(465.5634920634925 543.4933035714297) rotate(0 118 30)"><path d="M15 0 M15 0 C64.97 0.36, 118.99 0.92, 221 0 M15 0 C87.02 0.17, 160.08 0.31, 221 0 M221 0 C231.98 1.51, 237.63 4.41, 236 15 M221 0 C231.93 -0.52, 234.37 7.11, 236 15 M236 15 C234.1 24.83, 234.54 33.2, 236 45 M236 15 C235.72 24.25, 236.43 35.52, 236 45 M236 45 C235.64 55.72, 230.9 61.9, 221 60 M236 45 C237.08 55.08, 230.67 58.25, 221 60 M221 60 C146.46 63.06, 70.6 63.33, 15 60 M221 60 C163.19 60.26, 105.33 60.74, 15 60 M15 60 C4.85 58.01, -1.02 54.87, 0 45 M15 60 C4.36 62.19, 1.83 55.28, 0 45 M0 45 C1.17 33.56, -0.59 21.74, 0 15 M0 45 C-0.24 35.74, -0.61 26.09, 0 15 M0 15 C0.41 6.11, 5.46 0.53, 15 0 M0 15 C0.21 5.3, 7.1 -1.38, 15 0" stroke="#1e1e1e" stroke-width="2" fill="none"></path></g><g transform="translate(483.56359887501594 560.9933035714297) rotate(0 99.99989318847656 12.5)"><text x="99.99989318847656" y="0" font-family="Virgil, Segoe UI Emoji" font-size="20px" fill="#1e1e1e" text-anchor="middle" style="white-space: pre;" direction="ltr" dominant-baseline="text-before-edge">code.editor.ui.control</text></g><g stroke-linecap="round" transform="translate(602.3730158730164 179.56076388888948) rotate(0 117.99999999999999 30)"><path d="M15 0 M15 0 C96.91 0.12, 176.68 -2.84, 221 0 M15 0 C95.9 2.61, 177.93 1.61, 221 0 M221 0 C231.18 -0.33, 234.01 6.66, 236 15 M221 0 C232.06 -1.54, 235.25 2.92, 236 15 M236 15 C236.84 25.94, 237.43 35.5, 236 45 M236 15 C236.44 22.24, 235.97 28.77, 236 45 M236 45 C235.97 54.93, 231.09 60.96, 221 60 M236 45 C237.92 54.55, 231.04 58.58, 221 60 M221 60 C171.35 58.81, 125.92 58.67, 15 60 M221 60 C138.14 59.74, 57.24 60.25, 15 60 M15 60 C4.7 60.68, 0.75 55.77, 0 45 M15 60 C7.23 61.77, 2.28 53.56, 0 45 M0 45 C0.17 37.69, -0.55 27.46, 0 15 M0 45 C0.1 36.74, 0.04 25.94, 0 15 M0 15 C-0.7 3.54, 3.71 1.19, 15 0 M0 15 C-1.48 5.62, 4.92 -1.48, 15 0" stroke="#1e1e1e" stroke-width="2" fill="none"></path></g><g transform="translate(628.7331232948914 197.06076388888948) rotate(0 91.639892578125 12.5)"><text x="91.639892578125" y="0" font-family="Virgil, Segoe UI Emoji" font-size="20px" fill="#1e1e1e" text-anchor="middle" style="white-space: pre;" direction="ltr" dominant-baseline="text-before-edge">code.editor.ui.prefs</text></g><g stroke-linecap="round" transform="translate(880.6944444444453 503.70362103174665) rotate(0 117.99999999999999 30)"><path d="M15 0 M15 0 C93.92 -0.16, 173 -2.86, 221 0 M15 0 C96.97 1.28, 179.56 0.5, 221 0 M221 0 C229.17 0.94, 237.96 5.13, 236 15 M221 0 C232.38 -0.86, 237.59 6.75, 236 15 M236 15 C237.8 23.85, 236.2 31.43, 236 45 M236 15 C236.1 25.35, 235.13 36.81, 236 45 M236 45 C237.78 53.81, 229.05 58.29, 221 60 M236 45 C237.33 54.47, 232.14 61.9, 221 60 M221 60 C179.34 57.29, 136.62 57.76, 15 60 M221 60 C151.65 59.02, 82.6 58.25, 15 60 M15 60 C5.74 59.25, 1.8 53.11, 0 45 M15 60 C7.18 58.31, 2.06 56.13, 0 45 M0 45 C0.07 35, 0.56 25.15, 0 15 M0 45 C0.39 33.99, -0.75 21.77, 0 15 M0 15 C-1.12 4.21, 4.32 0.53, 15 0 M0 15 C-0.82 6.92, 6.07 2.23, 15 0" stroke="#1e1e1e" stroke-width="2" fill="none"></path></g><g transform="translate(906.3845460679804 521.2036210317467) rotate(0 92.30989837646484 12.5)"><text x="92.30989837646484" y="0" font-family="Virgil, Segoe UI Emoji" font-size="20px" fill="#1e1e1e" text-anchor="middle" style="white-space: pre;" direction="ltr" dominant-baseline="text-before-edge">code.editor.ui.model</text></g><g stroke-linecap="round"><g transform="translate(482.34632148653395 428.6073442342402) rotate(0 -156.73670716596354 216.0528922483238)"><path d="M0.78 -0.82 C-35.52 28.66, -165.68 104.76, -218.06 176.89 C-270.45 249.03, -297.75 389.2, -313.52 431.98 M-0.27 1.36 C-36.6 30.99, -166.07 106.11, -218.4 178.04 C-270.73 249.97, -298.67 390.69, -314.25 432.93" stroke="#1e1e1e" stroke-width="0.5" fill="none"></path></g><g transform="translate(482.34632148653395 428.6073442342402) rotate(0 -156.73670716596354 216.0528922483238)"><path d="M-317.5 404.92 C-316.86 411.32, -316.28 421.02, -312.78 433.57 M-315.64 402.13 C-315.64 412.22, -314.53 421.23, -314.23 432.27" stroke="#1e1e1e" stroke-width="0.5" fill="none"></path></g><g transform="translate(482.34632148653395 428.6073442342402) rotate(0 -156.73670716596354 216.0528922483238)"><path d="M-297.82 410.71 C-302.6 415.64, -307.43 423.75, -312.78 433.57 M-295.95 407.93 C-301.91 416.36, -306.7 423.64, -314.23 432.27" stroke="#1e1e1e" stroke-width="0.5" fill="none"></path></g></g><mask></mask><g stroke-linecap="round"><g transform="translate(643.8027433686558 436.8147321428577) rotate(0 115.79166273256065 39.01036800899095)"><path d="M-0.49 -0.24 C5.54 7.08, -2.23 31.82, 36.53 44.91 C75.29 57.99, 199.38 72.84, 232.07 78.27 M1.45 -1.41 C7.84 5.98, 0.52 32.7, 38.83 46.17 C77.14 59.65, 198.9 74.12, 231.3 79.43" stroke="#1e1e1e" stroke-width="1" fill="none"></path></g><g transform="translate(643.8027433686558 436.8147321428577) rotate(0 115.79166273256065 39.01036800899095)"><path d="M201.54 84.27 C210.67 83.65, 220.71 82.63, 229.5 77.66 M202.69 85.39 C212.14 84.08, 222.68 81.29, 231.45 79.12" stroke="#1e1e1e" stroke-width="1" fill="none"></path></g><g transform="translate(643.8027433686558 436.8147321428577) rotate(0 115.79166273256065 39.01036800899095)"><path d="M204.45 63.96 C212.79 70, 221.87 75.67, 229.5 77.66 M205.61 65.08 C214.03 71.16, 223.5 75.79, 231.45 79.12" stroke="#1e1e1e" stroke-width="1" fill="none"></path></g></g><mask></mask><g stroke-linecap="round"><g transform="translate(585.25495774562 432.8147321428577) rotate(0 -0.008801401457304792 50.85174814584627)"><path d="M-0.53 1.15 C-0.41 18.1, -0.29 84.48, -0.2 100.99 M1.4 0.71 C1.38 17.34, -1.03 82.27, -1.42 99.03" stroke="#1e1e1e" stroke-width="1" fill="none"></path></g><g transform="translate(585.25495774562 432.8147321428577) rotate(0 -0.008801401457304792 50.85174814584627)"><path d="M-8.89 69.68 C-8.33 76.55, -7.5 82.32, 0.22 98.84 M-9.91 71.22 C-8.15 79.66, -6.16 88.42, -0.44 99.12" stroke="#1e1e1e" stroke-width="1" fill="none"></path></g><g transform="translate(585.25495774562 432.8147321428577) rotate(0 -0.008801401457304792 50.85174814584627)"><path d="M11.62 70.3 C7.53 76.95, 3.7 82.57, 0.22 98.84 M10.6 71.85 C6.2 80.16, 2.03 88.73, -0.44 99.12" stroke="#1e1e1e" stroke-width="1" fill="none"></path></g></g><mask></mask><g stroke-linecap="round"><g transform="translate(518.595475977932 364.8147321428577) rotate(0 36.63919310799599 -78.22500944418547)"><path d="M0.28 -0.79 C6.98 -21.7, 28.21 -98.85, 40.55 -124.68 C52.88 -150.51, 68.93 -150.35, 74.3 -155.77 M-1.03 1.41 C5.49 -19.38, 27.15 -96.65, 39.61 -123.2 C52.07 -149.74, 68.26 -152.29, 73.72 -157.86" stroke="#1e1e1e" stroke-width="0.5" fill="none"></path></g><g transform="translate(518.595475977932 364.8147321428577) rotate(0 36.63919310799599 -78.22500944418547)"><path d="M58.73 -139.3 C64.25 -144.87, 69.73 -153.51, 72.11 -157.48 M60.55 -139 C64.94 -144.87, 69.22 -151.75, 73.26 -157.58" stroke="#1e1e1e" stroke-width="0.5" fill="none"></path></g><g transform="translate(518.595475977932 364.8147321428577) rotate(0 36.63919310799599 -78.22500944418547)"><path d="M50.02 -152.42 C58.49 -153.7, 66.84 -158.02, 72.11 -157.48 M51.84 -152.12 C59.11 -153.78, 66.21 -156.42, 73.26 -157.58" stroke="#1e1e1e" stroke-width="0.5" fill="none"></path></g></g><mask></mask><g stroke-linecap="round"><g transform="translate(924.295071366429 574.7934647817467) rotate(0 -375.6727841871092 140.9524389377133)"><path d="M0.75 -0.94 C-104.91 31.89, -507.9 148.75, -633.35 195.88 C-758.79 243.02, -731.87 267.62, -751.92 281.86 M-0.32 1.17 C-106.2 33.74, -509.09 147.04, -634.39 193.99 C-759.68 240.93, -732.2 268.2, -752.09 282.85" stroke="#1e1e1e" stroke-width="0.5" fill="none"></path></g><g transform="translate(924.295071366429 574.7934647817467) rotate(0 -375.6727841871092 140.9524389377133)"><path d="M-747.39 253.22 C-747.55 265.61, -751.5 272.89, -753.98 281.22 M-745.08 254.04 C-748.26 262.11, -749.38 270.53, -752.39 282.57" stroke="#1e1e1e" stroke-width="0.5" fill="none"></path></g><g transform="translate(924.295071366429 574.7934647817467) rotate(0 -375.6727841871092 140.9524389377133)"><path d="M-730 264.12 C-736.09 272.84, -746.08 276.33, -753.98 281.22 M-727.69 264.94 C-735.82 269.82, -741.99 275.07, -752.39 282.57" stroke="#1e1e1e" stroke-width="0.5" fill="none"></path></g></g><mask></mask><g stroke-linecap="round" transform="translate(1346.3888888888896 375.27033730158837) rotate(0 128 30)"><path d="M15 0 M15 0 C80.87 -2.3, 150.97 -2.08, 241 0 M15 0 C69.88 -0.46, 124.09 -0.77, 241 0 M241 0 C252.75 1.6, 254.46 4.44, 256 15 M241 0 C250.58 0.18, 254.07 5.48, 256 15 M256 15 C257.72 23.77, 255.92 34.16, 256 45 M256 15 C256.31 23.48, 256.49 29.76, 256 45 M256 45 C255.02 55.3, 252.29 59.99, 241 60 M256 45 C256.7 52.95, 251.47 61.74, 241 60 M241 60 C163.29 59.66, 87.84 62.38, 15 60 M241 60 C193.16 60.02, 147.45 60.5, 15 60 M15 60 C3.91 60.49, -1.87 54.07, 0 45 M15 60 C7.04 59.77, -2.11 55.65, 0 45 M0 45 C-1.82 37.12, -0.32 28.13, 0 15 M0 45 C0.13 34.5, 0.44 22.96, 0 15 M0 15 C0.96 3.47, 5.77 -1.05, 15 0 M0 15 C-1.52 6.89, 3.17 1.5, 15 0" stroke="#1e1e1e" stroke-width="2" fill="none"></path></g><g transform="translate(1359.6990161471904 392.77033730158837) rotate(0 114.68987274169922 12.5)"><text x="114.68987274169922" y="0" font-family="Virgil, Segoe UI Emoji" font-size="20px" fill="#1e1e1e" text-anchor="middle" style="white-space: pre;" direction="ltr" dominant-baseline="text-before-edge">code.editor.model.buffer</text></g><g stroke-linecap="round"><g transform="translate(1126.0915622424109 533.9781746031751) rotate(0 108.64608510376748 -70.47837972138298)"><path d="M0.19 -0.16 C36.51 -23.52, 182.02 -115.95, 218.46 -139.04 M-1.16 -1.29 C35.02 -24.48, 181.32 -117.59, 217.95 -140.79" stroke="#1e1e1e" stroke-width="1" fill="none"></path></g><g transform="translate(1126.0915622424109 533.9781746031751) rotate(0 108.64608510376748 -70.47837972138298)"><path d="M199.39 -115.62 C206.92 -123.29, 213.79 -135.05, 219.59 -141.6 M200.26 -117.76 C206.26 -124.81, 210.62 -132.89, 217.95 -140.84" stroke="#1e1e1e" stroke-width="1" fill="none"></path></g><g transform="translate(1126.0915622424109 533.9781746031751) rotate(0 108.64608510376748 -70.47837972138298)"><path d="M188.38 -132.94 C199.87 -134.66, 210.53 -140.45, 219.59 -141.6 M189.26 -135.08 C198.6 -136.59, 206.43 -139.2, 217.95 -140.84" stroke="#1e1e1e" stroke-width="1" fill="none"></path></g></g><mask></mask><g stroke-linecap="round" transform="translate(642.5793650793662 881.873511904763) rotate(0 128 30)"><path d="M15 0 M15 0 C89.28 -1.17, 161.59 -1.21, 241 0 M15 0 C97.66 1.58, 181.82 0.39, 241 0 M241 0 C250.03 1.26, 254.93 3.52, 256 15 M241 0 C252.31 -1.65, 257.65 3.68, 256 15 M256 15 C256.25 26.85, 255.24 37.85, 256 45 M256 15 C255.36 26.06, 256.4 36.85, 256 45 M256 45 C255.83 54.65, 251.2 59.77, 241 60 M256 45 C256.42 54.92, 252.73 60.52, 241 60 M241 60 C191.35 56.94, 139.16 56.6, 15 60 M241 60 C178.67 59.23, 116.5 58.91, 15 60 M15 60 C5.1 59.33, -0.71 54.88, 0 45 M15 60 C4.51 60.78, 2.29 53.16, 0 45 M0 45 C-1.52 36.08, -1.74 24.41, 0 15 M0 45 C-0.52 35.77, -0.29 26.09, 0 15 M0 15 C-0.97 4.43, 3.66 0.96, 15 0 M0 15 C-0.05 3.15, 3.12 -1.99, 15 0" stroke="#1e1e1e" stroke-width="2" fill="none"></path></g><g transform="translate(648.609478299581 899.373511904763) rotate(0 121.96988677978516 12.5)"><text x="121.96988677978516" y="0" font-family="Virgil, Segoe UI Emoji" font-size="20px" fill="#1e1e1e" text-anchor="middle" style="white-space: pre;" direction="ltr" dominant-baseline="text-before-edge">code.editor.javafx.layout</text></g><g stroke-linecap="round"><g transform="translate(1005.6301705042514 570.0004960317467) rotate(0 -113.45952198785736 150.02116436121278)"><path d="M0.17 0.16 C-37.67 50.11, -188.56 249.64, -226.74 299.7 M-1.2 -0.8 C-39.12 49.29, -189.53 250.39, -227.09 300.85" stroke="#1e1e1e" stroke-width="1" fill="none"></path></g><g transform="translate(1005.6301705042514 570.0004960317467) rotate(0 -113.45952198785736 150.02116436121278)"><path d="M-218.18 274.01 C-222.51 279.79, -223.93 291.41, -228.78 300.11 M-218.7 273.09 C-219.95 279.3, -222.56 285.02, -227.51 301.17" stroke="#1e1e1e" stroke-width="1" fill="none"></path></g><g transform="translate(1005.6301705042514 570.0004960317467) rotate(0 -113.45952198785736 150.02116436121278)"><path d="M-201.74 286.28 C-211.43 288.09, -218.21 295.7, -228.78 300.11 M-202.26 285.37 C-207.3 288.76, -213.82 291.56, -227.51 301.17" stroke="#1e1e1e" stroke-width="1" fill="none"></path></g></g><mask></mask><g stroke-linecap="round"><g transform="translate(1076.240555996641 575.1626468637096) rotate(0 220.32687505136903 175.07621368128028)"><path d="M-0.25 -0.36 C19.15 41.85, 42.8 194.29, 116.33 252.82 C189.86 311.34, 387.11 334.54, 440.91 350.79 M1.82 -1.6 C21.02 40.83, 41.94 195.32, 115.09 254.21 C188.25 313.1, 386.76 335.66, 440.76 351.75" stroke="#1e1e1e" stroke-width="0.5" fill="none"></path></g><g transform="translate(1076.240555996641 575.1626468637096) rotate(0 220.32687505136903 175.07621368128028)"><path d="M410.45 355.02 C419.29 356.73, 427.27 352.55, 438.78 350.41 M410.6 356.22 C420.92 353.59, 430.88 352.61, 441.11 352.17" stroke="#1e1e1e" stroke-width="0.5" fill="none"></path></g><g transform="translate(1076.240555996641 575.1626468637096) rotate(0 220.32687505136903 175.07621368128028)"><path d="M414.71 334.94 C422.23 342.5, 428.97 344.18, 438.78 350.41 M414.86 336.14 C423.9 340.32, 432.41 346.14, 441.11 352.17" stroke="#1e1e1e" stroke-width="0.5" fill="none"></path></g></g><mask></mask><g stroke-linecap="round" transform="translate(1357.563492063493 655.238591269842) rotate(0 125.85714285714278 30)"><path d="M15 0 M15 0 C89.35 -0.98, 164.11 0.02, 236.71 0 M15 0 C63.76 0.33, 112.46 -0.03, 236.71 0 M236.71 0 C246.42 -0.11, 250.72 5.75, 251.71 15 M236.71 0 C248.26 -1.44, 253.36 5.97, 251.71 15 M251.71 15 C252.94 23.59, 253.09 34.98, 251.71 45 M251.71 15 C252.6 22.27, 252.57 27.66, 251.71 45 M251.71 45 C253.48 53.13, 248.42 59.28, 236.71 60 M251.71 45 C252.11 53.6, 248.76 62.26, 236.71 60 M236.71 60 C161.82 58.99, 89.38 58.46, 15 60 M236.71 60 C147.7 58.54, 59.43 59.16, 15 60 M15 60 C3.27 59.41, 0.54 54.1, 0 45 M15 60 C4.6 61.33, -1.68 54.76, 0 45 M0 45 C-1.21 35.53, -1.36 31.1, 0 15 M0 45 C0.17 37.85, -0.31 29.61, 0 15 M0 15 C-1.61 3.87, 3.19 -0.36, 15 0 M0 15 C-0.1 6.23, 3.68 0.88, 15 0" stroke="#1e1e1e" stroke-width="2" fill="none"></path></g><g transform="translate(1368.1207539391903 672.738591269842) rotate(0 115.29988098144531 12.5)"><text x="115.29988098144531" y="0" font-family="Virgil, Segoe UI Emoji" font-size="20px" fill="#1e1e1e" text-anchor="middle" style="white-space: pre;" direction="ltr" dominant-baseline="text-before-edge">code.editor.model.layout</text></g><g stroke-linecap="round" transform="translate(1352.5317460317474 517.17509920635) rotate(0 125.85714285714278 30)"><path d="M15 0 M15 0 C87.5 0.8, 162.99 0.19, 236.71 0 M15 0 C98.64 -1.31, 181.97 0.13, 236.71 0 M236.71 0 C246.46 -1.26, 253.16 5.61, 251.71 15 M236.71 0 C247.81 1.61, 252.19 4.53, 251.71 15 M251.71 15 C252.4 19.31, 250.01 26.27, 251.71 45 M251.71 15 C251.81 24.2, 251.31 32.72, 251.71 45 M251.71 45 C251.34 56, 246.19 60.5, 236.71 60 M251.71 45 C252.41 56.51, 247.33 58.07, 236.71 60 M236.71 60 C155.34 60.97, 72.07 57.8, 15 60 M236.71 60 C170.69 59.09, 103.77 58.48, 15 60 M15 60 C3.21 60.33, 1.83 53.78, 0 45 M15 60 C3.49 62, -0.98 53.81, 0 45 M0 45 C0.95 37.04, 1.89 32.71, 0 15 M0 45 C-0.67 37.11, -0.84 30.25, 0 15 M0 15 C1.97 4.56, 3.5 0.55, 15 0 M0 15 C1.34 6.76, 3.48 1.91, 15 0" stroke="#1e1e1e" stroke-width="2" fill="none"></path></g><g transform="translate(1374.9490008884018 534.67509920635) rotate(0 103.43988800048828 12.5)"><text x="103.43988800048828" y="0" font-family="Virgil, Segoe UI Emoji" font-size="20px" fill="#1e1e1e" text-anchor="middle" style="white-space: pre;" direction="ltr" dominant-baseline="text-before-edge">code.editor.model.edit</text></g><g stroke-linecap="round" transform="translate(881.0396825396836 32.921130952382214) rotate(0 125.85714285714278 30)"><path d="M15 0 M15 0 C61.4 -0.31, 104.22 -0.77, 236.71 0 M15 0 C76.88 1.53, 136.93 1.24, 236.71 0 M236.71 0 C245.87 -1.31, 252.25 6.67, 251.71 15 M236.71 0 C245.91 -1.72, 251.64 5.69, 251.71 15 M251.71 15 C253.02 23.24, 252.66 35.94, 251.71 45 M251.71 15 C252.32 26.07, 250.69 35.74, 251.71 45 M251.71 45 C251.42 54.91, 244.91 60.06, 236.71 60 M251.71 45 C253.63 55.11, 244.94 59.24, 236.71 60 M236.71 60 C182.31 61.49, 127.83 62.83, 15 60 M236.71 60 C171.59 61.96, 105.71 61.81, 15 60 M15 60 C5.1 58.89, -1.97 53.08, 0 45 M15 60 C3.27 58.27, -0.92 57.1, 0 45 M0 45 C2.13 34.76, -0.38 25.84, 0 15 M0 45 C0.96 39.46, 0.71 32.37, 0 15 M0 15 C1.03 3, 5.75 -0.14, 15 0 M0 15 C-1.15 3.93, 5.39 -2.05, 15 0" stroke="#1e1e1e" stroke-width="2" fill="none"></path></g><g transform="translate(918.1269126770998 50.421130952382214) rotate(0 88.76991271972656 12.5)"><text x="88.76991271972656" y="0" font-family="Virgil, Segoe UI Emoji" font-size="20px" fill="#1e1e1e" text-anchor="middle" style="white-space: pre;" direction="ltr" dominant-baseline="text-before-edge">code.editor.syntax</text></g><g stroke-linecap="round"><g transform="translate(1131.2770337301597 538.6203935008477) rotate(0 105.23313086378216 -3.6960155448273895)"><path d="M-0.7 -0.62 C34.39 -2.26, 175.95 -7.69, 211.17 -9.06 M1.13 1.67 C36.03 0.11, 175.58 -6.25, 210.32 -7.82" stroke="#1e1e1e" stroke-width="1" fill="none"></path></g><g transform="translate(1131.2770337301597 538.6203935008477) rotate(0 105.23313086378216 -3.6960155448273895)"><path d="M181.59 4.04 C191.34 -0.83, 201.42 -4.42, 209.3 -6.6 M182.49 4.15 C191.12 -1.03, 200.11 -4.54, 210.44 -7.54" stroke="#1e1e1e" stroke-width="1" fill="none"></path></g><g transform="translate(1131.2770337301597 538.6203935008477) rotate(0 105.23313086378216 -3.6960155448273895)"><path d="M180.66 -16.46 C190.87 -14.12, 201.27 -10.51, 209.3 -6.6 M181.56 -16.35 C190.5 -14.95, 199.79 -11.88, 210.44 -7.54" stroke="#1e1e1e" stroke-width="1" fill="none"></path></g></g><mask></mask><g stroke-linecap="round"><g transform="translate(1128.4587122136822 538.6030858403029) rotate(0 109.61636843187537 64.81702277265451)"><path d="M0.26 -0.27 C36.84 21.58, 183.91 109.22, 220.29 131.09 M-1.06 -1.45 C35.35 20.04, 182.68 107.56, 219.67 129.28" stroke="#1e1e1e" stroke-width="1" fill="none"></path></g><g transform="translate(1128.4587122136822 538.6030858403029) rotate(0 109.61636843187537 64.81702277265451)"><path d="M189.74 124.8 C201.98 123.88, 212.58 128.28, 218.1 130.32 M190.11 123.45 C195.76 125.45, 202.13 124.76, 220.46 128.3" stroke="#1e1e1e" stroke-width="1" fill="none"></path></g><g transform="translate(1128.4587122136822 538.6030858403029) rotate(0 109.61636843187537 64.81702277265451)"><path d="M200.18 107.13 C208.6 112.71, 215.37 123.58, 218.1 130.32 M200.55 105.78 C204.03 111.45, 208.29 114.32, 220.46 128.3" stroke="#1e1e1e" stroke-width="1" fill="none"></path></g></g><mask></mask><g stroke-linecap="round"><g transform="translate(1009.3559977805344 495.69246031746076) rotate(0 -1.5766361696122146 -195.1156948960485)"><path d="M0.19 0.31 C-0.12 -64.58, -2.17 -325.51, -2.48 -390.55 M-1.18 -0.57 C-1.57 -65.15, -3.22 -323.76, -3.34 -388.96" stroke="#1e1e1e" stroke-width="1" fill="none"></path></g><g transform="translate(1009.3559977805344 495.69246031746076) rotate(0 -1.5766361696122146 -195.1156948960485)"><path d="M7.57 -360.54 C4.9 -366.07, 3.46 -376.34, -2.94 -388.22 M7.35 -361.76 C3.03 -369.69, 0.61 -380.23, -3.85 -388.03" stroke="#1e1e1e" stroke-width="1" fill="none"></path></g><g transform="translate(1009.3559977805344 495.69246031746076) rotate(0 -1.5766361696122146 -195.1156948960485)"><path d="M-12.95 -360.45 C-10.57 -366.04, -6.95 -376.32, -2.94 -388.22 M-13.17 -361.67 C-10.58 -369.49, -6.07 -380.06, -3.85 -388.03" stroke="#1e1e1e" stroke-width="1" fill="none"></path></g></g><mask></mask><g stroke-linecap="round"><g transform="translate(866.0649257041981 547.5946942061033) rotate(0 -78.54375369178966 15.164957633533291)"><path d="M-0.81 -1.09 C-26.86 4.24, -131.4 25.89, -157.45 31.42 M0.96 0.95 C-25.09 5.96, -131.66 24.64, -158.05 29.54" stroke="#1e1e1e" stroke-width="1" fill="none"></path></g><g transform="translate(866.0649257041981 547.5946942061033) rotate(0 -78.54375369178966 15.164957633533291)"><path d="M-133.95 15.56 C-136.75 19.03, -140.91 19.07, -158.75 28.48 M-132.05 14.17 C-137.62 16.97, -143.21 21.71, -158.86 29.33" stroke="#1e1e1e" stroke-width="1" fill="none"></path></g><g transform="translate(866.0649257041981 547.5946942061033) rotate(0 -78.54375369178966 15.164957633533291)"><path d="M-130.31 35.76 C-133.76 35.06, -138.67 30.95, -158.75 28.48 M-128.42 34.36 C-134.91 32.49, -141.34 32.56, -158.86 29.33" stroke="#1e1e1e" stroke-width="1" fill="none"></path></g></g><mask></mask><g stroke-linecap="round"><g transform="translate(968.7541526005208 494.66790674603226) rotate(0 -60.61109054259942 -143.1860582387281)"><path d="M-0.89 0.92 C-11.57 -39.74, -42.81 -195.98, -62.95 -243.69 C-83.09 -291.41, -111.87 -278.17, -121.74 -285.37 M0.85 0.35 C-10.03 -40.68, -43.05 -197.49, -63.54 -245.43 C-84.02 -293.37, -112.37 -280.5, -122.07 -287.29" stroke="#1e1e1e" stroke-width="0.5" fill="none"></path></g><g transform="translate(968.7541526005208 494.66790674603226) rotate(0 -60.61109054259942 -143.1860582387281)"><path d="M-90.78 -289.89 C-102.8 -288.38, -114.4 -287.67, -123.28 -286.94 M-92.73 -290.22 C-99.46 -290.21, -107.08 -288.22, -122.99 -287.9" stroke="#1e1e1e" stroke-width="0.5" fill="none"></path></g><g transform="translate(968.7541526005208 494.66790674603226) rotate(0 -60.61109054259942 -143.1860582387281)"><path d="M-95.34 -269.88 C-105.61 -276.22, -115.41 -283.39, -123.28 -286.94 M-97.29 -270.22 C-102.95 -275.27, -109.42 -278.3, -122.99 -287.9" stroke="#1e1e1e" stroke-width="0.5" fill="none"></path></g></g><mask></mask><g stroke-linecap="round"><g transform="translate(456.36305862938536 583.0990081805807) rotate(0 -143.02330265514559 139.50897003100513)"><path d="M-0.33 -0.01 C-34.37 18.21, -156.5 61.75, -204.32 108.43 C-252.13 155.11, -273.37 251.72, -287.23 280.07 M1.7 -1.06 C-31.98 17.38, -153.93 63.09, -202.17 109.6 C-250.41 156.1, -273.6 249.72, -287.75 277.96" stroke="#1e1e1e" stroke-width="0.5" fill="none"></path></g><g transform="translate(456.36305862938536 583.0990081805807) rotate(0 -143.02330265514559 139.50897003100513)"><path d="M-287.08 246.18 C-288.68 257.59, -286.95 266.06, -289.55 278.33 M-286.13 248.33 C-286.42 258.98, -288.49 268.27, -288.23 278.02" stroke="#1e1e1e" stroke-width="0.5" fill="none"></path></g><g transform="translate(456.36305862938536 583.0990081805807) rotate(0 -143.02330265514559 139.50897003100513)"><path d="M-267.96 253.63 C-275.14 262.8, -279.05 269.06, -289.55 278.33 M-267.01 255.78 C-273.79 264.07, -282.37 270.82, -288.23 278.02" stroke="#1e1e1e" stroke-width="0.5" fill="none"></path></g></g><mask></mask><g stroke-linecap="round" transform="translate(219.30158730158757 178.92063492063505) rotate(0 103.5 30)"><path d="M15 0 M15 0 C71.11 1.33, 132.37 -0.46, 192 0 M15 0 C51.58 1.13, 88.94 1.93, 192 0 M192 0 C202.11 -0.3, 208.96 6.37, 207 15 M192 0 C201.98 0.32, 205.08 4.43, 207 15 M207 15 C208.7 23.41, 208.6 29.5, 207 45 M207 15 C207.24 21.97, 206.39 29.72, 207 45 M207 45 C205.71 56.49, 200.15 58.34, 192 60 M207 45 C206.28 54.5, 201.93 58.95, 192 60 M192 60 C149.09 61.15, 100.82 61.38, 15 60 M192 60 C155.87 59.53, 118.38 58.23, 15 60 M15 60 C4.99 59.18, 0.75 56.4, 0 45 M15 60 C5.81 57.79, 1.49 54.42, 0 45 M0 45 C1.2 36.06, 1.9 23.76, 0 15 M0 45 C0.18 37.13, -0.55 29.49, 0 15 M0 15 C-1.74 3.77, 4.33 -0.46, 15 0 M0 15 C0.34 5.33, 6.15 1.36, 15 0" stroke="#1e1e1e" stroke-width="2" fill="none"></path></g><g transform="translate(239.62167854914617 196.42063492063505) rotate(0 83.1799087524414 12.5)"><text x="83.1799087524414" y="0" font-family="Virgil, Segoe UI Emoji" font-size="20px" fill="#1e1e1e" text-anchor="middle" style="white-space: pre;" direction="ltr" dominant-baseline="text-before-edge">code.editor.ui.app</text></g><g stroke-linecap="round"><g transform="translate(286.4298587477847 254.4761904761906) rotate(0 -59.384260266632225 303.6941562104541)"><path d="M0.43 1.05 C-14.33 49.68, -67.86 192, -87.71 292.96 C-107.57 393.93, -113.38 554.52, -118.71 606.84 M-0.81 0.55 C-15.83 49.39, -69.14 190.78, -88.87 291.47 C-108.6 392.16, -114.06 551.89, -119.2 604.68" stroke="#1e1e1e" stroke-width="0.5" fill="none"></path></g><g transform="translate(286.4298587477847 254.4761904761906) rotate(0 -59.384260266632225 303.6941562104541)"><path d="M-125.7 575.16 C-122.14 587.31, -120.5 596.25, -118.52 604.4 M-127.72 575.26 C-124.03 585.4, -121.74 596.5, -118.4 604.43" stroke="#1e1e1e" stroke-width="0.5" fill="none"></path></g><g transform="translate(286.4298587477847 254.4761904761906) rotate(0 -59.384260266632225 303.6941562104541)"><path d="M-105.23 576.61 C-109.21 588.3, -115.09 596.71, -118.52 604.4 M-107.25 576.71 C-110.73 586.18, -115.62 596.78, -118.4 604.43" stroke="#1e1e1e" stroke-width="0.5" fill="none"></path></g></g><mask></mask><g stroke-linecap="round"><g transform="translate(336.1882677715515 248.7539682539683) rotate(0 71.64111101908162 70.21645905587434)"><path d="M0.1 0.66 C6.39 18.83, 14.52 86.2, 38.61 109.31 C62.69 132.41, 126.99 134.42, 144.59 139.26 M-1.31 -0.04 C4.71 18.3, 13.26 87.32, 37.48 110.74 C61.7 134.16, 126.18 135.79, 144.01 140.48" stroke="#1e1e1e" stroke-width="1" fill="none"></path></g><g transform="translate(336.1882677715515 248.7539682539683) rotate(0 71.64111101908162 70.21645905587434)"><path d="M115.68 145.76 C125.22 144.68, 136.17 141.86, 142.13 140.08 M114.41 147.29 C121.66 145.33, 130.67 143.25, 144.04 140.76" stroke="#1e1e1e" stroke-width="1" fill="none"></path></g><g transform="translate(336.1882677715515 248.7539682539683) rotate(0 71.64111101908162 70.21645905587434)"><path d="M118.81 125.48 C127.23 131.96, 137.01 136.69, 142.13 140.08 M117.55 127.01 C124.18 130.27, 132.37 133.43, 144.04 140.76" stroke="#1e1e1e" stroke-width="1" fill="none"></path></g></g><mask></mask><g stroke-linecap="round"><g transform="translate(431.85714285714323 208.1990706709381) rotate(0 81.99071647860711 1.7237774117172648)"><path d="M-1.02 0.08 C26.33 0.56, 137.12 2.44, 165 2.9 M0.65 -0.93 C27.74 -0.25, 136.36 3.55, 163.93 4.38" stroke="#1e1e1e" stroke-width="0.5" fill="none"></path></g><g transform="translate(431.85714285714323 208.1990706709381) rotate(0 81.99071647860711 1.7237774117172648)"><path d="M135.54 13.31 C145.95 12.14, 156.52 7.42, 163.89 5.27 M135.82 14.66 C143.4 11.09, 150.02 9.78, 164.51 4.02" stroke="#1e1e1e" stroke-width="0.5" fill="none"></path></g><g transform="translate(431.85714285714323 208.1990706709381) rotate(0 81.99071647860711 1.7237774117172648)"><path d="M136.21 -7.2 C146.36 -0.66, 156.69 2.33, 163.89 5.27 M136.49 -5.85 C143.74 -4.12, 150.19 -0.14, 164.51 4.02" stroke="#1e1e1e" stroke-width="0.5" fill="none"></path></g></g><mask></mask><g stroke-linecap="round"><g transform="translate(635.3412698412706 902.2925571162694) rotate(0 -189.98145759010868 -0.01303242630655177)"><path d="M1.11 -1.08 C-62.37 -1.25, -316.49 -0.35, -379.85 -0.1 M0.23 0.96 C-63.53 0.86, -317.75 0.95, -381.07 1.08" stroke="#1e1e1e" stroke-width="0.5" fill="none"></path></g><g transform="translate(635.3412698412706 902.2925571162694) rotate(0 -189.98145759010868 -0.01303242630655177)"><path d="M-354.69 -10.07 C-364.72 -4.6, -374.56 -2.32, -381.2 1.02 M-352.87 -9.99 C-358.51 -7.03, -364.93 -5.51, -381.58 1.42" stroke="#1e1e1e" stroke-width="0.5" fill="none"></path></g><g transform="translate(635.3412698412706 902.2925571162694) rotate(0 -189.98145759010868 -0.01303242630655177)"><path d="M-354.67 10.45 C-364.87 8.09, -374.71 2.54, -381.2 1.02 M-352.85 10.54 C-358.58 9.26, -365 6.54, -381.58 1.42" stroke="#1e1e1e" stroke-width="0.5" fill="none"></path></g></g><mask></mask><g stroke-linecap="round"><g transform="translate(906.3893849206358 917.648891747879) rotate(0 302.0395462990206 4.400451550840572)"><path d="M-0.9 0.97 C99.53 2.4, 501.98 7.1, 602.67 8.37 M0.83 0.43 C101.64 1.54, 504.73 5.55, 604.98 6.59" stroke="#1e1e1e" stroke-width="0.5" fill="none"></path></g><g transform="translate(906.3893849206358 917.648891747879) rotate(0 302.0395462990206 4.400451550840572)"><path d="M578.3 15.3 C586.44 13.38, 595.43 10.94, 603.61 4.82 M577.38 16.08 C584.2 13.96, 589.46 12.66, 605.79 6.69" stroke="#1e1e1e" stroke-width="0.5" fill="none"></path></g><g transform="translate(906.3893849206358 917.648891747879) rotate(0 302.0395462990206 4.400451550840572)"><path d="M578.51 -5.22 C586.55 -0.88, 595.47 2.95, 603.61 4.82 M577.59 -4.44 C584.41 -1.74, 589.61 1.77, 605.79 6.69" stroke="#1e1e1e" stroke-width="0.5" fill="none"></path></g></g><mask></mask><g stroke-linecap="round"><g transform="translate(905.7864732031965 881.1077677471282) rotate(0 221.7011845268847 -81.88969942218117)"><path d="M0.46 0.25 C74.32 -27.04, 370.24 -136.62, 444.15 -164.03 M-0.75 -0.67 C72.95 -27.75, 369.64 -135.54, 443.7 -162.61" stroke="#1e1e1e" stroke-width="1" fill="none"></path></g><g transform="translate(905.7864732031965 881.1077677471282) rotate(0 221.7011845268847 -81.88969942218117)"><path d="M421.14 -141.76 C429.18 -149.56, 437.71 -158.63, 442.18 -162.24 M419.91 -143.55 C426.99 -147.34, 432.54 -153.37, 443.49 -162.62" stroke="#1e1e1e" stroke-width="1" fill="none"></path></g><g transform="translate(905.7864732031965 881.1077677471282) rotate(0 221.7011845268847 -81.88969942218117)"><path d="M414.11 -161.04 C424.8 -161.49, 436.02 -163.18, 442.18 -162.24 M412.88 -162.83 C421.85 -161.77, 429.18 -162.93, 443.49 -162.62" stroke="#1e1e1e" stroke-width="1" fill="none"></path></g></g><mask></mask><g stroke-linecap="round"><g transform="translate(1618.1445677926772 693.3742099398331) rotate(0 38.91144604796506 95.92764665513589)"><path d="M-0.58 0.84 C4.92 4.84, 20.07 -7.49, 33.23 24.31 C46.4 56.1, 70.85 163.91, 78.4 191.63 M1.32 0.23 C6.66 4.37, 19.62 -6.05, 32.42 25.55 C45.22 57.14, 70.94 162.11, 78.14 189.8" stroke="#1e1e1e" stroke-width="0.5" fill="none"></path></g><g transform="translate(1618.1445677926772 693.3742099398331) rotate(0 38.91144604796506 95.92764665513589)"><path d="M62.63 165.44 C65.78 174.67, 73.77 182.81, 78.03 190.65 M61.94 164.36 C67.35 173.01, 72.07 182.08, 78.44 190.4" stroke="#1e1e1e" stroke-width="0.5" fill="none"></path></g><g transform="translate(1618.1445677926772 693.3742099398331) rotate(0 38.91144604796506 95.92764665513589)"><path d="M82.52 160.37 C79.29 171.13, 80.9 180.89, 78.03 190.65 M81.82 159.29 C80.65 169.68, 78.73 180.43, 78.44 190.4" stroke="#1e1e1e" stroke-width="0.5" fill="none"></path></g></g><mask></mask><g stroke-linecap="round"><g transform="translate(1612.0117718752567 545.0992570773622) rotate(0 43.45268380382009 168.15216028924087)"><path d="M0.16 0 C5.04 8.08, 14.15 -6.46, 28.81 49.52 C43.47 105.51, 78.37 288.37, 88.12 335.89 M-1.21 -1.05 C3.53 7.18, 12.89 -8.8, 27.71 47.6 C42.52 104, 77.72 289.41, 87.67 337.35" stroke="#1e1e1e" stroke-width="0.5" fill="none"></path></g><g transform="translate(1612.0117718752567 545.0992570773622) rotate(0 43.45268380382009 168.15216028924087)"><path d="M72.11 311.2 C76.99 319.34, 80.83 324.58, 86.02 336.63 M71.4 311.98 C76.67 319.59, 83.34 329.35, 88.62 337.98" stroke="#1e1e1e" stroke-width="0.5" fill="none"></path></g><g transform="translate(1612.0117718752567 545.0992570773622) rotate(0 43.45268380382009 168.15216028924087)"><path d="M92.23 307.2 C91.93 316.4, 90.56 322.68, 86.02 336.63 M91.53 307.97 C89.89 316.91, 89.66 328.05, 88.62 337.98" stroke="#1e1e1e" stroke-width="0.5" fill="none"></path></g></g><mask></mask><g stroke-linecap="round"><g transform="translate(1471.975154056298 445.8105158730168) rotate(0 0.720253336931961 30.920635154240273)"><path d="M0.78 0.97 C0.89 11.07, -0.46 50.41, -0.36 60.39 M-0.27 0.43 C0.3 10.67, 1.61 51.17, 1.81 61.41" stroke="#1e1e1e" stroke-width="1" fill="none"></path></g><g transform="translate(1471.975154056298 445.8105158730168) rotate(0 0.720253336931961 30.920635154240273)"><path d="M-7.61 31.8 C-8.56 40.5, -5.47 46.15, 3.04 62.48 M-8.65 33.86 C-5.29 43.54, -2.53 52.34, 1.95 61.32" stroke="#1e1e1e" stroke-width="1" fill="none"></path></g><g transform="translate(1471.975154056298 445.8105158730168) rotate(0 0.720253336931961 30.920635154240273)"><path d="M12.91 31.24 C7.6 40.19, 6.33 45.96, 3.04 62.48 M11.86 33.3 C8.28 43.06, 4.1 52.05, 1.95 61.32" stroke="#1e1e1e" stroke-width="1" fill="none"></path></g></g><mask></mask><g stroke-linecap="round"><g transform="translate(1610.0100150394962 403.3947742216567) rotate(0 43.20462746817924 239.83751872175233)"><path d="M-0.03 -0.74 C6.62 10.49, 25.51 -13.16, 40.17 67.04 C54.82 147.23, 79.7 411.73, 87.91 480.42 M-1.5 1.48 C5.06 12.97, 25.03 -10.81, 39.77 68.67 C54.51 148.16, 79.13 409.85, 86.93 478.39" stroke="#1e1e1e" stroke-width="0.5" fill="none"></path></g><g transform="translate(1610.0100150394962 403.3947742216567) rotate(0 43.20462746817924 239.83751872175233)"><path d="M72.56 453.17 C78.26 459.44, 83.19 470.63, 85.85 478.93 M74.73 451.63 C77.07 456.72, 80.1 464.02, 87.51 477.46" stroke="#1e1e1e" stroke-width="0.5" fill="none"></path></g><g transform="translate(1610.0100150394962 403.3947742216567) rotate(0 43.20462746817924 239.83751872175233)"><path d="M92.97 451.04 C92.07 457.99, 90.42 469.87, 85.85 478.93 M95.14 449.5 C92.66 455.21, 90.88 463.01, 87.51 477.46" stroke="#1e1e1e" stroke-width="0.5" fill="none"></path></g></g><mask></mask><g stroke-linecap="round" transform="translate(1342.8174603174612 37.39682539682701) rotate(0 133.6349206349206 30)"><path d="M15 0 M15 0 C63.61 2.72, 113.95 1.73, 252.27 0 M15 0 C67.24 -0.53, 120.67 -1.07, 252.27 0 M252.27 0 C263.72 0.43, 266.82 5.58, 267.27 15 M252.27 0 C263.06 1.95, 268.8 4.48, 267.27 15 M267.27 15 C267.93 19.67, 267.83 26.07, 267.27 45 M267.27 15 C268.17 25.17, 267.96 37, 267.27 45 M267.27 45 C267.23 55.02, 260.62 60.18, 252.27 60 M267.27 45 C265.94 57.29, 263.73 57.81, 252.27 60 M252.27 60 C165.91 60.96, 81.6 60.71, 15 60 M252.27 60 C192.18 57.39, 134.27 57.84, 15 60 M15 60 C4.96 60.53, 0.19 53.08, 0 45 M15 60 C4.27 58.76, -0.9 52.76, 0 45 M0 45 C0.49 33.9, -0.34 24.86, 0 15 M0 45 C0.54 36.11, 0.01 27.48, 0 15 M0 15 C1.71 6.04, 3.58 -1.68, 15 0 M0 15 C0.61 2.71, 6.95 -1.21, 15 0" stroke="#1e1e1e" stroke-width="2" fill="none"></path></g><g transform="translate(1350.3025014968155 54.89682539682701) rotate(0 126.1498794555664 12.5)"><text x="126.1498794555664" y="0" font-family="Virgil, Segoe UI Emoji" font-size="20px" fill="#1e1e1e" text-anchor="middle" style="white-space: pre;" direction="ltr" dominant-baseline="text-before-edge">com.mammb.code.piecetable</text></g><g stroke-linecap="round"><g transform="translate(1480.7866348829216 200.7262331039193) rotate(0 -0.815921984729755 -49.9917396015112)"><path d="M-0.82 0.97 C-1.04 -16.01, -1.64 -84.28, -1.68 -100.96 M0.95 0.44 C0.61 -16.51, -2.17 -83.02, -2.58 -99.92" stroke="#1e1e1e" stroke-width="1" fill="none"></path></g><g transform="translate(1480.7866348829216 200.7262331039193) rotate(0 -0.815921984729755 -49.9917396015112)"><path d="M10.25 -71.94 C3.76 -78.6, 3.82 -85.44, -4.46 -99.62 M9.38 -72.05 C5.82 -78.96, 4.21 -85.14, -3.17 -99.51" stroke="#1e1e1e" stroke-width="1" fill="none"></path></g><g transform="translate(1480.7866348829216 200.7262331039193) rotate(0 -0.815921984729755 -49.9917396015112)"><path d="M-10.26 -71.24 C-11.18 -77.95, -5.55 -84.98, -4.46 -99.62 M-11.13 -71.36 C-10.05 -78.58, -7.03 -84.92, -3.17 -99.51" stroke="#1e1e1e" stroke-width="1" fill="none"></path></g></g><mask></mask><g stroke-linecap="round" transform="translate(10 10) rotate(0 110.64285714285711 30)"><path d="M15 0 M15 0 C69.86 -1.81, 124.37 1.32, 206.29 0 M15 0 C78.14 -1.97, 140.44 -0.65, 206.29 0 M206.29 0 C216.15 -0.3, 219.42 4.44, 221.29 15 M206.29 0 C214.09 -1.66, 222.78 6.43, 221.29 15 M221.29 15 C222.54 20.34, 220.21 27.8, 221.29 45 M221.29 15 C220.44 24.32, 221.95 31.87, 221.29 45 M221.29 45 C221.91 56.05, 217.82 60.81, 206.29 60 M221.29 45 C219.24 52.83, 214.7 58.86, 206.29 60 M206.29 60 C156.42 58.99, 105.11 60.71, 15 60 M206.29 60 C137.54 61.58, 69.01 60.75, 15 60 M15 60 C3.38 61.29, 1.81 56.6, 0 45 M15 60 C7.18 61.82, -0.61 53.4, 0 45 M0 45 C1.98 35.79, -0.21 28.34, 0 15 M0 45 C0.07 34.09, 0.54 24.33, 0 15 M0 15 C-1.85 4.2, 5.25 -1.41, 15 0 M0 15 C-2.1 5.23, 5.18 -1.95, 15 0" stroke="#1e1e1e" stroke-width="2" fill="none"></path></g><g transform="translate(15.812969752720392 27.5) rotate(0 104.82988739013672 12.5)"><text x="104.82988739013672" y="0" font-family="Virgil, Segoe UI Emoji" font-size="20px" fill="#1e1e1e" text-anchor="middle" style="white-space: pre;" direction="ltr" dominant-baseline="text-before-edge">code.editor.bootstrap</text></g><g stroke-linecap="round"><g transform="translate(126.52871723027044 77.78643578643596) rotate(0 44.39523234068986 58.79920611304033)"><path d="M-0.92 0.86 C1.82 14.69, 0.58 64.53, 15.68 83.8 C30.79 103.07, 77.34 110.93, 89.71 116.48 M0.8 0.27 C3.97 14.17, 3.26 65.48, 17.91 84.99 C32.57 104.51, 76.71 111.82, 88.73 117.33" stroke="#1e1e1e" stroke-width="1" fill="none"></path></g><g transform="translate(126.52871723027044 77.78643578643596) rotate(0 44.39523234068986 58.79920611304033)"><path d="M60.19 116.96 C64.75 117.75, 71.46 117.82, 88.27 116.21 M59.66 117.52 C68.82 118.75, 80.52 116.59, 87.83 118.3" stroke="#1e1e1e" stroke-width="1" fill="none"></path></g><g transform="translate(126.52871723027044 77.78643578643596) rotate(0 44.39523234068986 58.79920611304033)"><path d="M66.46 97.42 C69.68 102.79, 74.9 107.49, 88.27 116.21 M65.93 97.98 C72.75 106.41, 82.14 111.43, 87.83 118.3" stroke="#1e1e1e" stroke-width="1" fill="none"></path></g></g><mask></mask><g stroke-linecap="round" transform="translate(55.12301587301636 138.24528769841356) rotate(0 587.0000000000001 307)"><path d="M32 0 M32 0 C421.67 0.89, 810.93 1.83, 1142 0 M1142 0 C1163.62 1.21, 1173.89 11.59, 1174 32 M1174 32 C1174.78 200.64, 1174.78 369.35, 1174 582 M1174 582 C1173.13 605.01, 1165.11 614.21, 1142 614 M1142 614 C818.73 611.89, 495.1 612.71, 32 614 M32 614 C9.92 612.14, 0.94 602.99, 0 582 M0 582 C1.74 403.62, 1.9 223.92, 0 32 M0 32 C0.96 9.08, 10.21 -1.15, 32 0" stroke="#1e1e1e" stroke-width="1" fill="none" stroke-dasharray="1.5 6.5"></path></g><g stroke-linecap="round" transform="translate(1271.1230158730164 139.24528769841356) rotate(0 264 446.00000000000006)"><path d="M32 0 M32 0 C183.6 -0.57, 337.72 -0.91, 496 0 M496 0 C518.68 0.76, 528.2 9.37, 528 32 M528 32 C525.54 295.1, 524.82 557.48, 528 860 M528 860 C529.84 881.77, 517.83 893.66, 496 892 M496 892 C325.34 892.39, 153.32 891.97, 32 892 M32 892 C12.46 891, -0.47 880.63, 0 860 M0 860 C2.35 662.58, 2.49 465.95, 0 32 M0 32 C-1.38 11.82, 11.72 -0.83, 32 0" stroke="#1e1e1e" stroke-width="1" fill="none" stroke-dasharray="1.5 6.5"></path></g><g stroke-linecap="round" transform="translate(1354.9187748015875 206.68978252108184) rotate(0 133.6349206349206 30)"><path d="M15 0 M15 0 C105.12 -0.25, 197.28 -0.56, 252.27 0 M15 0 C61.83 1.04, 109.68 1.95, 252.27 0 M252.27 0 C263.35 1.98, 266.59 6.8, 267.27 15 M252.27 0 C264 -1.39, 266.53 3.55, 267.27 15 M267.27 15 C267.61 23.2, 266.26 32.36, 267.27 45 M267.27 15 C267.52 24.04, 266.47 32.81, 267.27 45 M267.27 45 C266.59 55.27, 261.43 58.16, 252.27 60 M267.27 45 C266.56 54.67, 260.74 58.46, 252.27 60 M252.27 60 C180.09 60.55, 104.4 60, 15 60 M252.27 60 C199.21 57.83, 146.66 58.08, 15 60 M15 60 C4.34 61.89, -1.79 54.98, 0 45 M15 60 C5.45 60.03, -0.14 56.58, 0 45 M0 45 C-0.03 34.86, 1.99 25.8, 0 15 M0 45 C-0.94 36.04, -0.61 26.81, 0 15 M0 15 C-0.4 5.64, 3.93 0.49, 15 0 M0 15 C-1.04 3.05, 7.1 0.74, 15 0" stroke="#1e1e1e" stroke-width="2" fill="none"></path></g><g transform="translate(1367.4438168964691 224.18978252108184) rotate(0 121.10987854003906 12.5)"><text x="121.10987854003906" y="0" font-family="Virgil, Segoe UI Emoji" font-size="20px" fill="#1e1e1e" text-anchor="middle" style="white-space: pre;" direction="ltr" dominant-baseline="text-before-edge">code.editor.model.content</text></g><g stroke-linecap="round"><g transform="translate(1480.520252186863 372.4766881382179) rotate(0 -1.308120519635537 -50.07916545109791)"><path d="M0.19 0.67 C-0.05 -16.21, -1.33 -84.11, -1.83 -100.83 M-1.17 -0.03 C-1.53 -16.81, -2.92 -82.77, -2.8 -99.72" stroke="#1e1e1e" stroke-width="1" fill="none"></path></g><g transform="translate(1480.520252186863 372.4766881382179) rotate(0 -1.308120519635537 -50.07916545109791)"><path d="M8.83 -71.7 C3.42 -80.84, 2.64 -84.97, -2.2 -98.63 M7.86 -72.03 C4.9 -82.24, 0.22 -91.69, -2.01 -99.62" stroke="#1e1e1e" stroke-width="1" fill="none"></path></g><g transform="translate(1480.520252186863 372.4766881382179) rotate(0 -1.308120519635537 -50.07916545109791)"><path d="M-11.69 -71.52 C-11.63 -80.74, -6.93 -84.92, -2.2 -98.63 M-12.66 -71.85 C-8.16 -81.94, -5.38 -91.45, -2.01 -99.62" stroke="#1e1e1e" stroke-width="1" fill="none"></path></g></g><mask></mask></svg>
