<svg version="1.1" xmlns="http://www.w3.org/2000/svg" viewBox="0 0 1110.6307972178743 721.3768045263353" width="1110.6307972178743" height="721.3768045263353">
    <!-- svg-source:excalidraw -->

    <defs>
        <style class="style-fonts">
            @font-face {
            font-family: "Virgil";
            src: url("https://excalidraw.com/Virgil.woff2");
            }
            @font-face {
            font-family: "Cascadia";
            src: url("https://excalidraw.com/Cascadia.woff2");
            }
        </style>

    </defs>
    <rect x="0" y="0" width="1110.6307972178743" height="721.3768045263353" fill="#ffffff"></rect><g stroke-linecap="round" transform="translate(230.51677034415468 567.6375757354535) rotate(0 265.4392101811428 70.94062391293588)"><path d="M32 0 M32 0 C138.29 -1.81, 243.91 -0.73, 498.88 0 M498.88 0 C521.79 -0.77, 531.09 11.35, 530.88 32 M530.88 32 C531.75 62.29, 531.93 92.97, 530.88 109.88 M530.88 109.88 C528.92 129.32, 518.98 140.28, 498.88 141.88 M498.88 141.88 C383.25 139.81, 266.77 139.97, 32 141.88 M32 141.88 C11.49 142.76, -0.32 133.15, 0 109.88 M0 109.88 C1.02 87.27, 0.07 66.44, 0 32 M0 32 C-0.3 12.46, 10.27 -1.87, 32 0" stroke="#1e1e1e" stroke-width="1" fill="none" stroke-dasharray="1.5 6.5"></path></g><g stroke-linecap="round" transform="translate(806.2745820089106 436.65670816259455) rotate(0 52.5 17.5)"><path d="M8.75 0 M8.75 0 C35.19 -1.25, 63.61 0.07, 96.25 0 M8.75 0 C41.95 0.02, 75.95 0.33, 96.25 0 M96.25 0 C100.92 1.15, 106.94 3.09, 105 8.75 M96.25 0 C100.85 0.66, 103.8 4.72, 105 8.75 M105 8.75 C106.17 13.25, 104.62 19.8, 105 26.25 M105 8.75 C104.87 15.85, 104.68 23.29, 105 26.25 M105 26.25 C106.17 33.8, 100.85 36.15, 96.25 35 M105 26.25 C107.17 33.98, 101.43 32.88, 96.25 35 M96.25 35 C62.79 34.45, 31.79 33.93, 8.75 35 M96.25 35 C75.2 34.79, 54.19 35.78, 8.75 35 M8.75 35 C3.78 33.33, -0.86 32.47, 0 26.25 M8.75 35 C3.59 33.11, -2.29 34.08, 0 26.25 M0 26.25 C0.11 21.02, 1.44 17.76, 0 8.75 M0 26.25 C0.5 21.83, 0.62 19.4, 0 8.75 M0 8.75 C-1.37 4.2, 0.95 -0.36, 8.75 0 M0 8.75 C0.34 3.91, 3.31 2.07, 8.75 0" stroke="#1e1e1e" stroke-width="1" fill="none"></path></g><g transform="translate(826.934600929809 444.15670816259455) rotate(0 31.839981079101562 10)"><text x="31.839981079101562" y="0" font-family="Virgil, Segoe UI Emoji" font-size="16px" fill="#1e1e1e" text-anchor="middle" style="white-space: pre;" direction="ltr" dominant-baseline="text-before-edge">RowSlice</text></g><g stroke-linecap="round" transform="translate(817.0279050340843 324.9265835830589) rotate(0 13.5 13)"><path d="M18.8 2.19 C21.19 3.21, 23.93 4.46, 25.15 6.85 C26.37 9.24, 27 13.77, 26.14 16.52 C25.29 19.26, 22.47 21.7, 20 23.3 C17.53 24.9, 14.06 26.49, 11.32 26.11 C8.59 25.74, 5.51 23.12, 3.6 21.05 C1.69 18.98, 0.03 16.35, -0.16 13.69 C-0.35 11.03, 0.57 7.4, 2.44 5.09 C4.32 2.77, 8.08 0.35, 11.08 -0.2 C14.08 -0.75, 18.41 1.02, 20.44 1.78 C22.47 2.54, 23.14 4.26, 23.27 4.36 M9.35 1.43 C11.58 0.66, 15.44 -0.37, 17.94 0.86 C20.45 2.08, 23.16 6.41, 24.37 8.78 C25.57 11.14, 25.73 12.68, 25.18 15.05 C24.62 17.42, 22.96 21.03, 21.03 22.99 C19.1 24.94, 16.65 26.76, 13.6 26.76 C10.55 26.76, 5.13 25.17, 2.73 23 C0.32 20.83, -0.89 16.47, -0.83 13.75 C-0.78 11.02, 1.45 8.83, 3.07 6.65 C4.69 4.46, 7.72 1.83, 8.88 0.64 C10.03 -0.54, 9.9 -0.57, 10 -0.47" stroke="#1e1e1e" stroke-width="1" fill="none"></path></g><g transform="translate(849.0279050340843 328.4265835830589) rotate(0 48.91997528076172 10)"><text x="0" y="0" font-family="Virgil, Segoe UI Emoji" font-size="16px" fill="#1e1e1e" text-anchor="start" style="white-space: pre;" direction="ltr" dominant-baseline="text-before-edge">TextualSlice</text></g><g stroke-linecap="round"><g transform="translate(855.3732942495134 432.3233748292612) rotate(0 -11.239273980867779 -40.45728339116705)"><path d="M-0.53 -0.21 C-4.31 -13.53, -19.43 -67.53, -23.45 -80.7 M1.39 -1.37 C-2.4 -14.45, -19.38 -66.06, -23.87 -79.33" stroke="#1e1e1e" stroke-width="1" fill="none"></path></g></g><mask></mask><g stroke-linecap="round" transform="translate(691.9422871209438 202.0469266604754) rotate(0 13.5 13)"><path d="M11.21 -0.68 C13.91 -1.09, 18.69 0.25, 21.25 1.96 C23.82 3.66, 25.88 6.84, 26.57 9.53 C27.26 12.22, 26.71 15.68, 25.4 18.07 C24.1 20.47, 21.16 22.68, 18.74 23.92 C16.32 25.15, 13.38 25.88, 10.86 25.49 C8.34 25.1, 5.24 23.92, 3.6 21.58 C1.96 19.23, 1.06 14.27, 1.01 11.4 C0.96 8.54, 1.33 6.28, 3.32 4.4 C5.3 2.51, 10.82 0.83, 12.94 0.09 C15.07 -0.66, 15.94 -0.37, 16.06 -0.09 M10.46 0.97 C12.7 -0.19, 15.54 -0.43, 18.2 0.53 C20.86 1.48, 25.17 4.16, 26.43 6.69 C27.68 9.22, 26.31 13.05, 25.75 15.72 C25.18 18.38, 25.17 21.24, 23.04 22.71 C20.91 24.18, 16.2 24.33, 12.98 24.54 C9.77 24.75, 5.69 25.86, 3.73 23.97 C1.78 22.08, 1.67 16.27, 1.25 13.22 C0.83 10.17, -0.3 8.01, 1.2 5.68 C2.71 3.34, 8.78 0.06, 10.31 -0.81 C11.84 -1.67, 10.54 -0.08, 10.38 0.48" stroke="#1e1e1e" stroke-width="1" fill="none"></path></g><g transform="translate(723.9422871209438 205.5469266604754) rotate(0 52.767967224121094 10)"><text x="0" y="0" font-family="Virgil, Segoe UI Emoji" font-size="16px" fill="#1e1e1e" text-anchor="start" style="white-space: pre;" direction="ltr" dominant-baseline="text-before-edge">TextualScroll</text></g><g stroke-linecap="round"><g transform="translate(821.3485295570844 326.3205280861962) rotate(0 -47.605226044476154 -46.316019467348454)"><path d="M-0.08 -1.06 C-15.69 -16.49, -78.64 -76.64, -94.55 -91.92 M-1.58 1 C-17.22 -14.83, -79.33 -78.22, -95.13 -93.63" stroke="#1e1e1e" stroke-width="1" fill="none"></path></g></g><mask></mask><g stroke-linecap="round" transform="translate(689.7345437941208 100.71948860517514) rotate(0 13.5 13)"><path d="M13.71 -0.08 C16.4 0.06, 20.43 2.31, 22.63 3.96 C24.82 5.62, 26.52 7.3, 26.88 9.86 C27.24 12.42, 26.22 16.88, 24.79 19.32 C23.36 21.76, 21.02 23.45, 18.33 24.48 C15.64 25.52, 11.47 26.18, 8.64 25.51 C5.81 24.85, 2.72 22.89, 1.34 20.49 C-0.05 18.09, -0.3 13.85, 0.32 11.11 C0.94 8.37, 2.49 5.76, 5.06 4.05 C7.63 2.35, 13.68 1.53, 15.74 0.86 C17.79 0.2, 17.39 -0.07, 17.38 0.05 M14.79 0.25 C17.32 0.57, 20.77 3.29, 22.86 5.5 C24.94 7.72, 27 10.83, 27.31 13.55 C27.61 16.27, 26.71 19.59, 24.69 21.82 C22.68 24.06, 18.31 26.69, 15.22 26.97 C12.14 27.24, 8.6 24.96, 6.17 23.46 C3.74 21.95, 1.75 20.56, 0.65 17.93 C-0.44 15.31, -1.27 10.43, -0.4 7.71 C0.48 4.99, 3.12 2.93, 5.89 1.62 C8.65 0.31, 14.43 -0.19, 16.19 -0.16 C17.96 -0.13, 16.81 1.5, 16.48 1.78" stroke="#1e1e1e" stroke-width="1" fill="none"></path></g><g transform="translate(721.7345437941208 104.21948860517514) rotate(0 47.215972900390625 10)"><text x="0" y="0" font-family="Virgil, Segoe UI Emoji" font-size="16px" fill="#1e1e1e" text-anchor="start" style="white-space: pre;" direction="ltr" dominant-baseline="text-before-edge">TextualList</text></g><g stroke-linecap="round"><g transform="translate(704.3415017853971 198.47358564290687) rotate(0 0.17050794061805874 -33.46645683340018)"><path d="M-0.53 0.43 C-0.65 -10.83, -0.22 -56.21, -0.22 -67.36 M1.4 -0.39 C1.09 -11.56, -0.6 -55.59, -1.06 -66.4" stroke="#1e1e1e" stroke-width="1" fill="none"></path></g></g><mask></mask><g stroke-linecap="round"><g transform="translate(687.7547570353372 407.1368791237102) rotate(0 62.44422522643034 -30.618623660514597)"><path d="M-1 1.19 C19.82 -8.85, 104.7 -50.26, 125.88 -60.73 M0.68 0.77 C21.29 -9.56, 104.29 -52.24, 125.12 -62.43" stroke="#1e1e1e" stroke-width="1" fill="none"></path></g></g><mask></mask><g stroke-linecap="round" transform="translate(387.529059516059 408.5782964369828) rotate(0 52.5 17)"><path d="M8.5 0 M8.5 0 C31.13 -1.27, 57.77 1.39, 96.5 0 M8.5 0 C38.15 0.47, 67.97 0.74, 96.5 0 M96.5 0 C103.75 -0.56, 103.95 4.73, 105 8.5 M96.5 0 C99.9 1.59, 104.73 4.25, 105 8.5 M105 8.5 C106.54 11.68, 104.05 18.15, 105 25.5 M105 8.5 C104.22 11.78, 104.26 15.57, 105 25.5 M105 25.5 C106.71 32.25, 101.41 33.32, 96.5 34 M105 25.5 C102.89 30.17, 101.42 32.79, 96.5 34 M96.5 34 C67.06 34.63, 40.14 32.45, 8.5 34 M96.5 34 C69.69 33.69, 42.05 33.72, 8.5 34 M8.5 34 C4.63 34.37, 1.95 31.22, 0 25.5 M8.5 34 C1 35.1, 0.87 32.12, 0 25.5 M0 25.5 C-1.14 18.8, 1.03 16.8, 0 8.5 M0 25.5 C-0.81 19.93, 0.63 12.05, 0 8.5 M0 8.5 C0.29 0.85, 2.52 -0.58, 8.5 0 M0 8.5 C0.52 3.85, 2.52 1.89, 8.5 0" stroke="#1e1e1e" stroke-width="1" fill="none"></path></g><g transform="translate(397.86109839545355 415.5782964369828) rotate(0 42.16796112060547 10)"><text x="42.16796112060547" y="0" font-family="Virgil, Segoe UI Emoji" font-size="16px" fill="#1e1e1e" text-anchor="middle" style="white-space: pre;" direction="ltr" dominant-baseline="text-before-edge">EditBuffer</text></g><g stroke-linecap="round"><g transform="translate(434.88157066628213 405.65939938719134) rotate(0 -25.87507897378613 -29.57624695630883)"><path d="M-0.76 0.07 C-9.52 -9.62, -43.22 -49.53, -51.64 -59.22 M1.05 -0.94 C-7.99 -10.33, -43.95 -47.91, -52.8 -57.72" stroke="#1e1e1e" stroke-width="1" fill="none"></path></g></g><mask></mask><g stroke-linecap="round" transform="translate(844.2800685907505 551.8401738584431) rotate(0 13.5 13)"><path d="M7.59 0.44 C9.92 -0.76, 13.2 -0.49, 16.08 0.35 C18.95 1.18, 22.86 3.1, 24.84 5.44 C26.82 7.79, 28.37 11.68, 27.95 14.41 C27.53 17.14, 24.48 19.91, 22.32 21.83 C20.16 23.76, 17.73 25.71, 14.99 25.94 C12.25 26.16, 8.27 24.68, 5.88 23.18 C3.49 21.69, 1.57 19.5, 0.66 16.96 C-0.25 14.43, -0.83 10.79, 0.42 7.97 C1.67 5.14, 6.48 1.11, 8.18 0.02 C9.87 -1.07, 10.6 1.09, 10.6 1.44 M11.71 -0.01 C14.21 -0.8, 17.54 0.28, 20.17 1.79 C22.81 3.3, 26.44 6.73, 27.53 9.07 C28.62 11.4, 27.69 13.15, 26.73 15.79 C25.78 18.42, 24.41 22.99, 21.81 24.88 C19.21 26.77, 14.1 27.91, 11.13 27.15 C8.17 26.39, 6.04 22.61, 3.99 20.31 C1.94 18, -0.89 16.04, -1.18 13.32 C-1.48 10.6, 0.1 6.36, 2.2 3.99 C4.3 1.63, 9.83 -0.06, 11.42 -0.88 C13.02 -1.7, 12.01 -1.46, 11.75 -0.92" stroke="#1e1e1e" stroke-width="1" fill="none"></path></g><g transform="translate(876.2800685907505 555.3401738584431) rotate(0 43.695960998535156 10)"><text x="0" y="0" font-family="Virgil, Segoe UI Emoji" font-size="16px" fill="#1e1e1e" text-anchor="start" style="white-space: pre;" direction="ltr" dominant-baseline="text-before-edge">RowSupplier</text></g><g stroke-linecap="round" transform="translate(629.1782537722124 492.1441228529985) rotate(0 52.5 17.5)"><path d="M8.75 0 M8.75 0 C30.49 -0.57, 48.11 -0.94, 96.25 0 M8.75 0 C31.49 0.79, 54.27 -0.03, 96.25 0 M96.25 0 C102.28 -0.8, 106.26 3.5, 105 8.75 M96.25 0 C102.35 -1.24, 104.77 2.7, 105 8.75 M105 8.75 C103.25 15.79, 105.13 23.05, 105 26.25 M105 8.75 C105 13.69, 105.24 18.6, 105 26.25 M105 26.25 C105.48 32.48, 102.19 35.53, 96.25 35 M105 26.25 C105.66 30.85, 102.65 35.29, 96.25 35 M96.25 35 C74.23 34.18, 48.41 33.02, 8.75 35 M96.25 35 C62.74 35.43, 28.13 35.97, 8.75 35 M8.75 35 C4.77 36.22, -1.74 30.11, 0 26.25 M8.75 35 C4.82 36.72, -0.7 31.63, 0 26.25 M0 26.25 C1.79 20, -0.54 16.59, 0 8.75 M0 26.25 C0.22 22.46, -0.27 17.83, 0 8.75 M0 8.75 C0.03 4.07, 4.49 -0.84, 8.75 0 M0 8.75 C-1.82 2.24, 4.61 -0.72, 8.75 0" stroke="#1e1e1e" stroke-width="1" fill="none"></path></g><g transform="translate(635.5342947268023 499.6441228529985) rotate(0 46.143959045410156 10)"><text x="46.143959045410156" y="0" font-family="Virgil, Segoe UI Emoji" font-size="16px" fill="#1e1e1e" text-anchor="middle" style="white-space: pre;" direction="ltr" dominant-baseline="text-before-edge">RowAdapter</text></g><g stroke-linecap="round"><g transform="translate(737.2278133121026 527.7554059312199) rotate(0 52.475226134248516 15.37426798356212)"><path d="M-0.5 0.82 C17.2 5.74, 88.12 24.69, 105.45 29.42 M1.43 0.2 C19.15 5.28, 87.66 25.57, 105.07 30.55" stroke="#1e1e1e" stroke-width="1" fill="none"></path></g></g><mask></mask><g stroke-linecap="round" transform="translate(489.08403284409485 597.6381147796033) rotate(0 13.5 13)"><path d="M16.29 -0.32 C19.08 0.01, 21.39 2.08, 23.32 4.19 C25.24 6.3, 27.72 9.44, 27.84 12.36 C27.97 15.27, 26.03 19.58, 24.05 21.68 C22.07 23.78, 18.7 24.45, 15.98 24.96 C13.26 25.46, 10.14 25.89, 7.72 24.73 C5.3 23.57, 2.68 20.7, 1.45 17.97 C0.23 15.24, -0.58 10.94, 0.37 8.36 C1.32 5.78, 4.64 3.77, 7.15 2.5 C9.67 1.22, 13.81 1.01, 15.47 0.71 C17.13 0.41, 16.96 0.63, 17.12 0.72 M11.02 0.44 C13.55 0.35, 17.95 1.8, 20.32 3.28 C22.69 4.77, 24.39 6.55, 25.23 9.33 C26.08 12.1, 26.27 17.6, 25.41 19.95 C24.56 22.3, 22.6 22.56, 20.1 23.42 C17.6 24.27, 13.45 25.4, 10.43 25.08 C7.4 24.76, 3.84 23.86, 1.95 21.49 C0.07 19.11, -1.32 13.81, -0.87 10.81 C-0.43 7.81, 2.43 5.19, 4.63 3.49 C6.84 1.79, 11.07 0.89, 12.38 0.6 C13.68 0.3, 12.21 1.54, 12.46 1.72" stroke="#1e1e1e" stroke-width="1" fill="none"></path></g><g transform="translate(521.0840328440948 601.1381147796033) rotate(0 30.47198486328125 10)"><text x="0" y="0" font-family="Virgil, Segoe UI Emoji" font-size="16px" fill="#1e1e1e" text-anchor="start" style="white-space: pre;" direction="ltr" dominant-baseline="text-before-edge">Content</text></g><g stroke-linecap="round" transform="translate(384.1177842881947 651.966922735077) rotate(0 52.5 17.5)"><path d="M8.75 0 M8.75 0 C41.02 -0.89, 69.38 -1.34, 96.25 0 M8.75 0 C36.84 -0.35, 65.55 -0.22, 96.25 0 M96.25 0 C101.08 1.86, 106.96 4.81, 105 8.75 M96.25 0 C103.45 -0.58, 103.06 2.57, 105 8.75 M105 8.75 C104.32 15.39, 106.64 19.38, 105 26.25 M105 8.75 C105.35 12.05, 104.39 16.73, 105 26.25 M105 26.25 C103.44 33.09, 100.76 34.95, 96.25 35 M105 26.25 C105.93 33.9, 100.17 35.64, 96.25 35 M96.25 35 C78.77 34.11, 58.42 35.12, 8.75 35 M96.25 35 C74.11 34.29, 51.3 35.18, 8.75 35 M8.75 35 C3.08 35.3, 0.69 31.42, 0 26.25 M8.75 35 C3.05 37.28, 0 31.28, 0 26.25 M0 26.25 C-0.17 20.3, 0.67 11.09, 0 8.75 M0 26.25 C0.4 20.08, -0.38 15.32, 0 8.75 M0 8.75 C1.66 4.08, 1.79 -0.16, 8.75 0 M0 8.75 C-0.65 2.63, 1.89 1.4, 8.75 0" stroke="#1e1e1e" stroke-width="1" fill="none"></path></g><g transform="translate(396.3378083970814 659.466922735077) rotate(0 40.27997589111328 10)"><text x="40.27997589111328" y="0" font-family="Virgil, Segoe UI Emoji" font-size="16px" fill="#1e1e1e" text-anchor="middle" style="white-space: pre;" direction="ltr" dominant-baseline="text-before-edge">PtContent</text></g><g stroke-linecap="round" transform="translate(498.10306564031885 649.8748406304253) rotate(0 71.5 17.5)"><path d="M8.75 0 M8.75 0 C53.54 0.58, 98.45 -1.76, 134.25 0 M8.75 0 C35.9 1.05, 62.59 1.98, 134.25 0 M134.25 0 C140.52 0.77, 142.39 4.44, 143 8.75 M134.25 0 C138.22 -0.19, 142.39 2.76, 143 8.75 M143 8.75 C144.49 14.16, 144.3 16.77, 143 26.25 M143 8.75 C142.61 14.51, 143.12 18.4, 143 26.25 M143 26.25 C141.91 31.56, 138.4 34.3, 134.25 35 M143 26.25 C142.27 30.95, 140.81 37.01, 134.25 35 M134.25 35 C98.06 34.05, 59.66 34.25, 8.75 35 M134.25 35 C104.44 33.3, 75.4 34.19, 8.75 35 M8.75 35 C3.62 36.32, 1.73 30.38, 0 26.25 M8.75 35 C3.23 35.47, -0.5 32.77, 0 26.25 M0 26.25 C1.21 21.89, -0.1 16.34, 0 8.75 M0 26.25 C-0.71 20.65, -0.44 14.33, 0 8.75 M0 8.75 C1.18 4.45, 0.94 -1.51, 8.75 0 M0 8.75 C-1.67 4.84, 3.9 -1.58, 8.75 0" stroke="#1e1e1e" stroke-width="1" fill="none"></path></g><g transform="translate(506.69110885320947 657.3748406304253) rotate(0 62.911956787109375 10)"><text x="62.911956787109375" y="0" font-family="Virgil, Segoe UI Emoji" font-size="16px" fill="#1e1e1e" text-anchor="middle" style="white-space: pre;" direction="ltr" dominant-baseline="text-before-edge">PtContentMirror</text></g><g stroke-linecap="round"><g transform="translate(459.31622141919416 647.3993868488398) rotate(0 16.784976962820807 -9.783888971840469)"><path d="M0.7 -0.87 C6.34 -4.27, 28.31 -17.62, 33.97 -20.85 M-0.4 1.29 C5.09 -1.94, 27.26 -16.35, 33.03 -19.74" stroke="#1e1e1e" stroke-width="1" fill="none"></path></g></g><mask></mask><g stroke-linecap="round"><g transform="translate(561.1767354399608 645.048102279038) rotate(0 -16.435708138029604 -6.2211568708392235)"><path d="M-1.09 -0.85 C-6.66 -3.04, -28.4 -11.59, -33.4 -13.77 M0.53 1.32 C-4.69 -0.71, -25.99 -10.35, -31.29 -12.77" stroke="#1e1e1e" stroke-width="1" fill="none"></path></g></g><mask></mask><g stroke-linecap="round"><g transform="translate(856.2986144547767 477.1052439571206) rotate(0 0.6982477229654762 33.16295737374227)"><path d="M0.87 -1.14 C0.95 9.91, 1.6 54.95, 1.58 66.1 M-0.13 0.88 C-0.32 12.11, -0.02 56.5, 0.52 67.46" stroke="#1e1e1e" stroke-width="1" fill="none"></path></g><g transform="translate(856.2986144547767 477.1052439571206) rotate(0 0.6982477229654762 33.16295737374227)"><path d="M-12.32 39.16 C-6.71 48.7, -3.02 61.43, 2.52 67.46 M-9.79 38.78 C-6.79 49.04, -2.32 58.39, 1.08 67.65" stroke="#1e1e1e" stroke-width="1" fill="none"></path></g><g transform="translate(856.2986144547767 477.1052439571206) rotate(0 0.6982477229654762 33.16295737374227)"><path d="M8.2 38.66 C5.74 48.55, 1.37 61.48, 2.52 67.46 M10.73 38.28 C6.95 48.87, 4.65 58.38, 1.08 67.65" stroke="#1e1e1e" stroke-width="1" fill="none"></path></g></g><mask></mask><g stroke-linecap="round" transform="translate(396.05865558300144 124.18527600656154) rotate(0 13.5 13)"><path d="M13.84 0.71 C16.48 0.74, 20.09 2.46, 22.15 4.32 C24.21 6.17, 25.8 9.33, 26.2 11.83 C26.6 14.33, 25.9 17.19, 24.56 19.31 C23.23 21.43, 21.01 23.46, 18.18 24.55 C15.34 25.64, 10.28 26.78, 7.57 25.86 C4.86 24.94, 3.07 21.66, 1.91 19.04 C0.75 16.42, 0.17 12.98, 0.61 10.14 C1.05 7.3, 2.17 3.81, 4.55 1.99 C6.94 0.17, 12.68 -0.61, 14.91 -0.77 C17.14 -0.92, 17.74 0.8, 17.94 1.07 M12.29 1.29 C15.08 0.99, 17.85 1.64, 19.95 2.78 C22.05 3.93, 23.93 5.89, 24.9 8.18 C25.86 10.47, 26.64 13.65, 25.73 16.51 C24.83 19.38, 22.05 23.73, 19.45 25.37 C16.86 27, 12.91 26.81, 10.18 26.3 C7.45 25.78, 4.91 24.59, 3.06 22.29 C1.22 20, -1 15.52, -0.91 12.53 C-0.82 9.54, 1.71 6.62, 3.58 4.35 C5.45 2.08, 8.82 -0.5, 10.33 -1.09 C11.83 -1.68, 12.47 0.33, 12.61 0.81" stroke="#1e1e1e" stroke-width="1" fill="none"></path></g><g transform="translate(428.05865558300144 127.68527600656154) rotate(0 44.631980895996094 10)"><text x="0" y="0" font-family="Virgil, Segoe UI Emoji" font-size="16px" fill="#1e1e1e" text-anchor="start" style="white-space: pre;" direction="ltr" dominant-baseline="text-before-edge">ScreenText</text></g><g stroke-linecap="round" transform="translate(417.971816916871 189.56762894773794) rotate(0 52.5 25)"><path d="M12.5 0 M12.5 0 C42.33 0.12, 75.34 2.1, 92.5 0 M12.5 0 C37.41 -0.25, 62.1 -1.07, 92.5 0 M92.5 0 C99.38 0.43, 104.47 4.65, 105 12.5 M92.5 0 C102.35 -1.35, 102.95 5.43, 105 12.5 M105 12.5 C105.6 18.52, 103.41 27.97, 105 37.5 M105 12.5 C105.27 18.51, 105.57 24.69, 105 37.5 M105 37.5 C104.12 45.77, 99.73 49.3, 92.5 50 M105 37.5 C106.81 44.69, 99.74 48.86, 92.5 50 M92.5 50 C68.93 48.71, 48.48 49.9, 12.5 50 M92.5 50 C64.92 49.97, 37.74 49.93, 12.5 50 M12.5 50 C3.81 51.64, -0.1 45.88, 0 37.5 M12.5 50 C2.13 51.21, -1.07 47.08, 0 37.5 M0 37.5 C-0.03 29.28, 0.72 19.29, 0 12.5 M0 37.5 C-0.14 28.14, 0.9 18.44, 0 12.5 M0 12.5 C-1.79 5.85, 2.24 -0.8, 12.5 0 M0 12.5 C1.46 3.94, 5.99 0.68, 12.5 0" stroke="#1e1e1e" stroke-width="1" fill="none"></path></g><g transform="translate(427.44783772985926 194.56762894773794) rotate(0 43.02397918701172 20)"><text x="43.02397918701172" y="0" font-family="Virgil, Segoe UI Emoji" font-size="16px" fill="#1e1e1e" text-anchor="middle" style="white-space: pre;" direction="ltr" dominant-baseline="text-before-edge">PlainScreen</text><text x="43.02397918701172" y="20" font-family="Virgil, Segoe UI Emoji" font-size="16px" fill="#1e1e1e" text-anchor="middle" style="white-space: pre;" direction="ltr" dominant-baseline="text-before-edge">Text</text></g><g stroke-linecap="round" transform="translate(304.26593456392976 191.47939365362038) rotate(0 52.5 25)"><path d="M12.5 0 M12.5 0 C27.94 -1.94, 43.9 -1.61, 92.5 0 M12.5 0 C36.5 0.78, 60.83 0.15, 92.5 0 M92.5 0 C102.13 0.4, 106.56 3.73, 105 12.5 M92.5 0 C98.62 0.92, 104.11 4.92, 105 12.5 M105 12.5 C103.88 19.62, 104.07 22.91, 105 37.5 M105 12.5 C105.75 23.34, 104.2 32.25, 105 37.5 M105 37.5 C105.17 44.09, 99.53 51.2, 92.5 50 M105 37.5 C104.95 46.52, 102.55 48.05, 92.5 50 M92.5 50 C66.58 52.12, 41.05 50.12, 12.5 50 M92.5 50 C63.48 49.99, 36.32 49.31, 12.5 50 M12.5 50 C2.93 49.55, 1.95 43.97, 0 37.5 M12.5 50 C2.02 52.19, 0.28 44.49, 0 37.5 M0 37.5 C-0.79 30.3, 1.27 21.41, 0 12.5 M0 37.5 C-0.47 32.16, -0.42 25.3, 0 12.5 M0 12.5 C1.62 2.2, 4.19 0.66, 12.5 0 M0 12.5 C-0.48 2.42, 5.04 0.47, 12.5 0" stroke="#1e1e1e" stroke-width="1" fill="none"></path></g><g transform="translate(313.26996288424226 196.47939365362038) rotate(0 43.4959716796875 20)"><text x="43.4959716796875" y="0" font-family="Virgil, Segoe UI Emoji" font-size="16px" fill="#1e1e1e" text-anchor="middle" style="white-space: pre;" direction="ltr" dominant-baseline="text-before-edge">WrapScreen</text><text x="43.4959716796875" y="20" font-family="Virgil, Segoe UI Emoji" font-size="16px" fill="#1e1e1e" text-anchor="middle" style="white-space: pre;" direction="ltr" dominant-baseline="text-before-edge">Text</text></g><g stroke-linecap="round" transform="translate(159.40566782234544 22.062018500433965) rotate(0 13.5 13)"><path d="M16.14 1.36 C19.03 2.15, 22.95 4.31, 24.67 6.31 C26.39 8.3, 26.65 10.81, 26.46 13.33 C26.27 15.85, 25.44 19.28, 23.52 21.43 C21.6 23.58, 17.9 25.71, 14.93 26.23 C11.96 26.75, 8.26 26.07, 5.7 24.57 C3.15 23.07, 0.41 20.11, -0.39 17.22 C-1.2 14.34, -0.48 10.08, 0.86 7.26 C2.19 4.45, 4.52 1.54, 7.59 0.34 C10.67 -0.86, 17.22 -0.28, 19.31 0.08 C21.4 0.44, 20.23 2.25, 20.14 2.48 M18.66 0.26 C21.09 0.77, 22.62 3.82, 23.99 6.18 C25.35 8.53, 26.93 11.48, 26.88 14.37 C26.82 17.26, 26.03 21.39, 23.66 23.51 C21.29 25.64, 15.77 27.07, 12.66 27.12 C9.55 27.17, 7.11 25.66, 5.02 23.8 C2.93 21.94, 0.72 18.97, 0.11 15.94 C-0.5 12.92, 0.13 8.3, 1.35 5.64 C2.56 2.98, 4.59 0.99, 7.4 0.01 C10.22 -0.98, 16.39 -0.19, 18.23 -0.26 C20.07 -0.33, 18.42 -0.59, 18.43 -0.39" stroke="#1e1e1e" stroke-width="1" fill="none"></path></g><g transform="translate(191.40566782234544 25.562018500433965) rotate(0 45.679969787597656 10)"><text x="0" y="0" font-family="Virgil, Segoe UI Emoji" font-size="16px" fill="#1e1e1e" text-anchor="start" style="white-space: pre;" direction="ltr" dominant-baseline="text-before-edge">EditorModel</text></g><g stroke-linecap="round" transform="translate(123.94941342422374 108.76376482396341) rotate(0 52.5 25)"><path d="M12.5 0 M12.5 0 C32.46 1.11, 47.46 -1.77, 92.5 0 M12.5 0 C31.8 -1.11, 48.59 -1.12, 92.5 0 M92.5 0 C100.97 0.9, 104.27 4.81, 105 12.5 M92.5 0 C101.01 -1.19, 104.15 5.64, 105 12.5 M105 12.5 C105.45 17.75, 104.9 23.23, 105 37.5 M105 12.5 C105.8 22.74, 104.07 32.53, 105 37.5 M105 37.5 C105.89 44.19, 101.76 49.85, 92.5 50 M105 37.5 C105.65 46.02, 99.06 51.78, 92.5 50 M92.5 50 C62.83 51.66, 37.44 51.08, 12.5 50 M92.5 50 C66.79 51.22, 42.13 50.01, 12.5 50 M12.5 50 C4.92 49.05, -0.13 46.68, 0 37.5 M12.5 50 C4.65 50.07, 0.06 45.84, 0 37.5 M0 37.5 C-0.08 31.28, 1.88 20.13, 0 12.5 M0 37.5 C-0.92 32.85, -0.42 26.86, 0 12.5 M0 12.5 C0.42 4.49, 3.38 -0.66, 12.5 0 M0 12.5 C0.21 5.11, 2.76 -0.81, 12.5 0" stroke="#1e1e1e" stroke-width="1" fill="none"></path></g><g transform="translate(130.76944363662608 113.76376482396341) rotate(0 45.679969787597656 20)"><text x="45.679969787597656" y="0" font-family="Virgil, Segoe UI Emoji" font-size="16px" fill="#1e1e1e" text-anchor="middle" style="white-space: pre;" direction="ltr" dominant-baseline="text-before-edge">EditorModel</text><text x="45.679969787597656" y="20" font-family="Virgil, Segoe UI Emoji" font-size="16px" fill="#1e1e1e" text-anchor="middle" style="white-space: pre;" direction="ltr" dominant-baseline="text-before-edge">Impl</text></g><g stroke-linecap="round"><g transform="translate(442.89566459243173 187.35969256907234) rotate(0 -9.818578568246295 -17.72579666262559)"><path d="M1.08 0.09 C-2.41 -5.38, -16.46 -27.87, -20.05 -33.58 M0.19 -0.91 C-3.49 -6.7, -17.15 -30.18, -20.72 -35.54" stroke="#1e1e1e" stroke-width="1" fill="none"></path></g></g><mask></mask><g stroke-linecap="round"><g transform="translate(390.44452776246675 190.1539119411663) rotate(0 5.8366538700533965 -17.26872411903662)"><path d="M-1.13 0.63 C1.12 -5.14, 10.22 -29.46, 12.81 -35.16 M0.47 -0.09 C2.59 -5.66, 9.27 -28.06, 11.56 -33.97" stroke="#1e1e1e" stroke-width="1" fill="none"></path></g></g><mask></mask><g stroke-linecap="round"><g transform="translate(172.64881622098085 98.8541838468035) rotate(0 0.06783313961065573 -21.18448774816126)"><path d="M0.82 -0.67 C0.96 -7.54, 0.69 -35.17, 0.61 -42.15 M-0.2 1.59 C-0.24 -5.56, -1.07 -36.84, -0.57 -43.96" stroke="#1e1e1e" stroke-width="1" fill="none"></path></g></g><mask></mask><g stroke-linecap="round"><g transform="translate(236.17644505718948 138.39724465329323) rotate(0 79.86645826066894 0.5700904352965921)"><path d="M-0.98 0.71 C25.23 0.54, 131.54 -0.13, 158.35 -0.03 M0.71 0.04 C27.22 0.54, 134.25 1.29, 160.71 1.17" stroke="#1e1e1e" stroke-width="1" fill="none"></path></g><g transform="translate(236.17644505718948 138.39724465329323) rotate(0 79.86645826066894 0.5700904352965921)"><path d="M133.69 10.26 C142.37 8.98, 155.61 1.63, 159.88 0.18 M132.79 10.91 C142.57 7.49, 152.38 4.04, 159.76 1.85" stroke="#1e1e1e" stroke-width="1" fill="none"></path></g><g transform="translate(236.17644505718948 138.39724465329323) rotate(0 79.86645826066894 0.5700904352965921)"><path d="M133.73 -10.26 C142.57 -3.51, 155.79 -2.82, 159.88 0.18 M132.84 -9.61 C142.41 -5.93, 152.2 -2.28, 159.76 1.85" stroke="#1e1e1e" stroke-width="1" fill="none"></path></g></g><mask></mask><g stroke-linecap="round"><g transform="translate(621.818364392894 523.6165024417277) rotate(0 -61.357189539078334 35.43347439115084)"><path d="M-0.8 0.45 C-21.4 12.05, -102.34 58.38, -122.52 69.97 M0.98 -0.35 C-19.91 11.36, -103.11 59.32, -123.7 71.22" stroke="#1e1e1e" stroke-width="1" fill="none"></path></g><g transform="translate(621.818364392894 523.6165024417277) rotate(0 -61.357189539078334 35.43347439115084)"><path d="M-103.65 47.51 C-112.78 57.42, -120.25 66.3, -121.79 69.52 M-103.93 47.63 C-110.21 54.13, -113.83 59.85, -124.53 70.62" stroke="#1e1e1e" stroke-width="1" fill="none"></path></g><g transform="translate(621.818364392894 523.6165024417277) rotate(0 -61.357189539078334 35.43347439115084)"><path d="M-93.39 65.28 C-106.6 68.18, -118.08 70.11, -121.79 69.52 M-93.68 65.4 C-102.74 67.02, -109.14 67.93, -124.53 70.62" stroke="#1e1e1e" stroke-width="1" fill="none"></path></g></g><mask></mask><g stroke-linecap="round"><g transform="translate(532.0869263448717 218.05414690843392) rotate(0 74.80437419831004 -1.9053525069779198)"><path d="M0.54 -0.02 C25.3 -0.7, 123 -2.98, 147.83 -3.79 M-0.63 -1.08 C24.58 -1.57, 125.25 -1.73, 150.24 -2.24" stroke="#1e1e1e" stroke-width="1" fill="none"></path></g><g transform="translate(532.0869263448717 218.05414690843392) rotate(0 74.80437419831004 -1.9053525069779198)"><path d="M122.12 7.32 C128.98 7.45, 133.98 2.21, 149.24 -2.92 M122.19 8.3 C133.36 4.52, 143.4 0.42, 150.69 -2.29" stroke="#1e1e1e" stroke-width="1" fill="none"></path></g><g transform="translate(532.0869263448717 218.05414690843392) rotate(0 74.80437419831004 -1.9053525069779198)"><path d="M121.91 -13.2 C128.87 -8.1, 133.93 -8.36, 149.24 -2.92 M121.99 -12.22 C133.28 -8.44, 143.4 -4.98, 150.69 -2.29" stroke="#1e1e1e" stroke-width="1" fill="none"></path></g></g><mask></mask><g stroke-linecap="round"><g transform="translate(179.9788251889297 164.3520001180811) rotate(0 84.22407562051717 80.17536367939927)"><path d="M0.41 -0.17 C8.52 19, 19.95 89.4, 47.71 116.15 C75.46 142.91, 147.02 153.03, 166.93 160.36 M-0.83 -1.3 C7.26 18.55, 18.75 90.36, 47.1 117.52 C75.45 144.68, 149.3 154.39, 169.28 161.66" stroke="#1e1e1e" stroke-width="1" fill="none"></path></g><g transform="translate(179.9788251889297 164.3520001180811) rotate(0 84.22407562051717 80.17536367939927)"><path d="M139.14 165.72 C145.46 162.13, 152.52 161.87, 168.84 161.78 M139.03 164.61 C147.44 163.76, 157.27 162.6, 168.98 160.66" stroke="#1e1e1e" stroke-width="1" fill="none"></path></g><g transform="translate(179.9788251889297 164.3520001180811) rotate(0 84.22407562051717 80.17536367939927)"><path d="M144.21 145.83 C149.59 146.65, 155.53 150.78, 168.84 161.78 M144.1 144.72 C151.22 149.51, 159.61 154.05, 168.98 160.66" stroke="#1e1e1e" stroke-width="1" fill="none"></path></g></g><mask></mask><g stroke-linecap="round"><g transform="translate(424.28874860228757 447.8338250947621) rotate(0 34.187767213847266 71.97482511639991)"><path d="M0.18 0.27 C11.59 24.31, 58.17 120.65, 69.56 144.59 M-1.18 -0.64 C10.04 23, 57.54 118.33, 69 142.6" stroke="#1e1e1e" stroke-width="1" fill="none"></path></g><g transform="translate(424.28874860228757 447.8338250947621) rotate(0 34.187767213847266 71.97482511639991)"><path d="M47.88 122.98 C56.34 129.35, 63.61 138.68, 70.34 141.48 M48.42 122.32 C52.32 126.34, 55.43 130.85, 68.1 141.64" stroke="#1e1e1e" stroke-width="1" fill="none"></path></g><g transform="translate(424.28874860228757 447.8338250947621) rotate(0 34.187767213847266 71.97482511639991)"><path d="M66.33 114 C67.58 123.91, 67.62 136.76, 70.34 141.48 M66.87 113.34 C67.02 119.11, 66.36 125.45, 68.1 141.64" stroke="#1e1e1e" stroke-width="1" fill="none"></path></g></g><mask></mask><g stroke-linecap="round" transform="translate(10 10) rotate(0 52.5 25)"><path d="M12.5 0 M12.5 0 C33.12 -1.85, 50.39 -1.72, 92.5 0 M12.5 0 C38.24 0.36, 65.02 0.17, 92.5 0 M92.5 0 C101.32 0.21, 104.23 4.65, 105 12.5 M92.5 0 C101.97 1.87, 105.26 5.82, 105 12.5 M105 12.5 C105.23 17.44, 105.4 23.42, 105 37.5 M105 12.5 C105.07 18.52, 105.74 22.76, 105 37.5 M105 37.5 C103.87 46.36, 100.39 51.8, 92.5 50 M105 37.5 C106.16 46.02, 98.72 50.44, 92.5 50 M92.5 50 C65.22 47.88, 34.86 49.67, 12.5 50 M92.5 50 C67.77 49.96, 43.67 50.23, 12.5 50 M12.5 50 C4.07 50.45, 1.09 47.28, 0 37.5 M12.5 50 C3.05 48.46, 1.53 44.27, 0 37.5 M0 37.5 C-0.37 30.12, 1.77 18.38, 0 12.5 M0 37.5 C-0.44 27.69, -0.73 18.91, 0 12.5 M0 12.5 C-1.91 2.27, 3.5 -1.73, 12.5 0 M0 12.5 C-0.43 6.02, 5.82 1.5, 12.5 0" stroke="#1e1e1e" stroke-width="1" fill="none"></path></g><g transform="translate(19.676025390625 25) rotate(0 42.823974609375 10)"><text x="42.823974609375" y="0" font-family="Virgil, Segoe UI Emoji" font-size="16px" fill="#1e1e1e" text-anchor="middle" style="white-space: pre;" direction="ltr" dominant-baseline="text-before-edge">EditorPane</text></g><g stroke-linecap="round"><g transform="translate(123.67647058823525 39.2634741498718) rotate(0 15.385693033395711 -1.7688581643370611)"><path d="M1.1 -0.43 C6.22 -1.12, 25.72 -2.6, 30.55 -3.1 M0.22 -1.71 C5.2 -1.68, 24.85 -1.53, 29.66 -1.64" stroke="#1e1e1e" stroke-width="1" fill="none"></path></g><g transform="translate(123.67647058823525 39.2634741498718) rotate(0 15.385693033395711 -1.7688581643370611)"><path d="M14.78 3.81 C19.22 1.54, 22.92 -0.06, 29.99 -1.31 M15.97 3.69 C20.89 1.41, 25.06 -0.59, 30.4 -1.19" stroke="#1e1e1e" stroke-width="1" fill="none"></path></g><g transform="translate(123.67647058823525 39.2634741498718) rotate(0 15.385693033395711 -1.7688581643370611)"><path d="M14.72 -6.64 C19.27 -5.91, 22.98 -4.5, 29.99 -1.31 M15.91 -6.77 C20.82 -5.53, 25 -4.01, 30.4 -1.19" stroke="#1e1e1e" stroke-width="1" fill="none"></path></g></g><mask></mask><g transform="translate(133.90271754046665 254.20464968213838) rotate(0 58.22395324707031 10)"><text x="0" y="0" font-family="Virgil, Segoe UI Emoji" font-size="16px" fill="#1e1e1e" text-anchor="start" style="white-space: pre;" direction="ltr" dominant-baseline="text-before-edge">push(Edit edit)</text></g><g stroke-linecap="round" transform="translate(250.5891150680244 408.3782311732473) rotate(0 59.89387063419119 16.19693531709561)"><path d="M8.1 0 M8.1 0 C45.89 -1.24, 85.13 -0.51, 111.69 0 M8.1 0 C31.74 0.34, 56.03 -0.8, 111.69 0 M111.69 0 C116.96 0.74, 121.55 1.02, 119.79 8.1 M111.69 0 C117.82 -0.64, 119.43 2.13, 119.79 8.1 M119.79 8.1 C120.63 11.95, 118.34 16.46, 119.79 24.3 M119.79 8.1 C119.49 14.59, 119.82 19.36, 119.79 24.3 M119.79 24.3 C118.62 31.01, 119.07 30.97, 111.69 32.39 M119.79 24.3 C117.88 30.4, 114.87 34.29, 111.69 32.39 M111.69 32.39 C75.08 34.93, 40.22 34.49, 8.1 32.39 M111.69 32.39 C85.09 33.92, 59.71 33.41, 8.1 32.39 M8.1 32.39 C4.55 31.13, -1.72 30.93, 0 24.3 M8.1 32.39 C3.04 31.83, 0.17 31.44, 0 24.3 M0 24.3 C-1.71 18.98, -0.46 11.42, 0 8.1 M0 24.3 C-0.04 19.8, 0.47 16.86, 0 8.1 M0 8.1 C1.14 1.27, 3.11 1.62, 8.1 0 M0 8.1 C0.22 3.67, 4.89 0.94, 8.1 0" stroke="#1e1e1e" stroke-width="1" fill="none"></path></g><g transform="translate(257.45902177399296 414.5751664903429) rotate(0 53.023963928222656 10)"><text x="53.023963928222656" y="0" font-family="Virgil, Segoe UI Emoji" font-size="16px" fill="#1e1e1e" text-anchor="middle" style="white-space: pre;" direction="ltr" dominant-baseline="text-before-edge">TextualArray</text></g><g stroke-linecap="round"><g transform="translate(300.4109667024552 402.27655947305857) rotate(0 28.840757551501554 -27.386164644032423)"><path d="M0.5 -0.54 C10.28 -9.94, 48.82 -47.21, 58.38 -56.57 M-0.69 1.8 C8.92 -7.43, 47.08 -45.65, 57.23 -55.23" stroke="#1e1e1e" stroke-width="1" fill="none"></path></g></g><mask></mask><g stroke-linecap="round" transform="translate(355.9459237990038 315.1690745634192) rotate(0 13.5 13)"><path d="M15.84 1.3 C18.58 1.64, 22.6 2.14, 24.53 4.26 C26.46 6.38, 27.7 11.12, 27.42 14.01 C27.13 16.9, 24.69 19.63, 22.8 21.59 C20.9 23.56, 18.7 25.43, 16.05 25.82 C13.39 26.22, 9.28 25.34, 6.86 23.98 C4.45 22.62, 2.51 20.45, 1.56 17.66 C0.6 14.87, 0.02 9.97, 1.11 7.23 C2.19 4.49, 5.36 2.51, 8.06 1.23 C10.76 -0.06, 15.69 -0.56, 17.31 -0.48 C18.94 -0.39, 17.77 1.49, 17.82 1.73 M8.96 1.37 C11.76 0.03, 15.86 0.46, 18.53 1 C21.21 1.54, 23.71 2.41, 24.99 4.59 C26.28 6.76, 26.68 11.1, 26.24 14.04 C25.8 16.98, 24.32 20.08, 22.33 22.23 C20.35 24.38, 17.26 26.69, 14.35 26.96 C11.44 27.22, 7.17 25.63, 4.87 23.8 C2.56 21.97, 0.91 18.63, 0.5 15.95 C0.08 13.28, 0.88 10.39, 2.38 7.76 C3.88 5.12, 8.52 1.19, 9.48 0.16 C10.44 -0.88, 8.47 1.34, 8.12 1.54" stroke="#1e1e1e" stroke-width="1" fill="none"></path></g><g transform="translate(387.9459237990038 318.6690745634192) rotate(0 36.03997802734375 10)"><text x="0" y="0" font-family="Virgil, Segoe UI Emoji" font-size="16px" fill="#1e1e1e" text-anchor="start" style="white-space: pre;" direction="ltr" dominant-baseline="text-before-edge">TextEdit</text></g><g stroke-linecap="round" transform="translate(781.7730850020266 285.7467714197496) rotate(0 139.5630696614584 212.8150165532928)"><path d="M32 0 M32 0 C102.59 -0.39, 176.52 -0.5, 247.13 0 M247.13 0 C266.48 1.37, 280.37 11.77, 279.13 32 M279.13 32 C280.82 151, 280.36 269.47, 279.13 393.63 M279.13 393.63 C277.39 414.04, 268.1 427.02, 247.13 425.63 M247.13 425.63 C167.31 426, 90.03 425.77, 32 425.63 M32 425.63 C9.31 424.65, 1.85 415.32, 0 393.63 M0 393.63 C0.36 311.45, -0.81 229.86, 0 32 M0 32 C0.65 12.4, 11.3 -1.88, 32 0" stroke="#1e1e1e" stroke-width="1" fill="none" stroke-dasharray="1.5 6.5"></path></g><g stroke-linecap="round" transform="translate(582.757073371239 41.41036089728854) rotate(0 13.5 13)"><path d="M15.53 -0.76 C18.12 -0.36, 21.5 2.94, 23.27 5.12 C25.05 7.3, 25.88 9.77, 26.17 12.32 C26.46 14.86, 26.79 18.28, 25 20.37 C23.22 22.47, 18.48 24.11, 15.45 24.87 C12.42 25.64, 9.13 26.1, 6.81 24.97 C4.5 23.84, 2.59 20.69, 1.58 18.09 C0.58 15.5, 0.06 12.09, 0.78 9.4 C1.5 6.72, 2.86 3.35, 5.89 2.01 C8.91 0.68, 16.57 1.38, 18.92 1.41 C21.26 1.44, 20.15 2.15, 19.98 2.21 M17.14 -0.43 C19.98 0.39, 23.7 3.75, 25.14 6.47 C26.58 9.19, 26.25 13.18, 25.78 15.88 C25.3 18.58, 24.09 21.04, 22.28 22.64 C20.48 24.24, 17.72 25.14, 14.96 25.47 C12.21 25.81, 7.93 26.28, 5.73 24.66 C3.54 23.05, 2.55 18.89, 1.8 15.79 C1.06 12.69, -0.02 8.75, 1.28 6.08 C2.58 3.41, 6.75 0.6, 9.6 -0.24 C12.45 -1.07, 17.15 0.91, 18.38 1.07 C19.61 1.23, 16.98 0.42, 16.99 0.72" stroke="#1e1e1e" stroke-width="1" fill="none"></path></g><g transform="translate(614.757073371239 44.91036089728854) rotate(0 39.62397766113281 10)"><text x="0" y="0" font-family="Virgil, Segoe UI Emoji" font-size="16px" fill="#1e1e1e" text-anchor="start" style="white-space: pre;" direction="ltr" dominant-baseline="text-before-edge">Translate</text></g><g stroke-linecap="round" transform="translate(546.2508240494074 12.577027563955198) rotate(0 167.5 118.5)"><path d="M32 0 M32 0 C92.89 2.64, 154.77 1.58, 303 0 M303 0 C324.91 -0.22, 336.99 10.17, 335 32 M335 32 C334.33 74.38, 332.84 116.8, 335 205 M335 205 C335.23 228.1, 323.06 235.36, 303 237 M303 237 C203.57 237.05, 100.79 237.49, 32 237 M32 237 C9.28 238.2, -0.34 225.87, 0 205 M0 205 C-0.2 139.39, -1.29 72.52, 0 32 M0 32 C0.77 11, 8.88 -0.25, 32 0" stroke="#1e1e1e" stroke-width="1" fill="none" stroke-dasharray="1.5 6.5"></path></g><g stroke-linecap="round" transform="translate(230.50207128088448 284.64440698561316) rotate(0 266.74220305798104 131.55058054207197)"><path d="M32 0 M32 0 C143.5 0.32, 255.51 1.58, 501.48 0 M501.48 0 C524.65 1.27, 533.57 11.03, 533.48 32 M533.48 32 C530.27 79.86, 530.94 123.65, 533.48 231.1 M533.48 231.1 C534.97 252.36, 523.56 261.55, 501.48 263.1 M501.48 263.1 C327.39 264.18, 153.87 264.53, 32 263.1 M32 263.1 C9.14 262.14, -1.3 252.49, 0 231.1 M0 231.1 C-0.21 173.29, 0.56 115.35, 0 32 M0 32 C-0.64 9.56, 10.84 1.13, 32 0" stroke="#1e1e1e" stroke-width="1" fill="none" stroke-dasharray="1.5 6.5"></path></g><g transform="translate(252.3753371643865 513.6817175173292) rotate(0 46.919952392578125 10)"><text x="0" y="0" font-family="Virgil, Segoe UI Emoji" font-size="16px" fill="#1e1e1e" text-anchor="start" style="white-space: pre;" direction="ltr" dominant-baseline="text-before-edge">model.buffer</text></g><g transform="translate(782.6397129382963 17.743694230621827) rotate(0 40.63196563720703 10)"><text x="0" y="0" font-family="Virgil, Segoe UI Emoji" font-size="16px" fill="#1e1e1e" text-anchor="start" style="white-space: pre;" direction="ltr" dominant-baseline="text-before-edge">model.text</text></g><g transform="translate(885.0057972178741 474.02276930466184) rotate(0 107.8125 28.799999999999997)"><text x="0" y="0" font-family="Cascadia, Segoe UI Emoji" font-size="16px" fill="#1e1e1e" text-anchor="start" style="white-space: pre;" direction="ltr" dominant-baseline="text-before-edge">List&lt;Textual&gt; rows</text><text x="0" y="19.2" font-family="Cascadia, Segoe UI Emoji" font-size="16px" fill="#1e1e1e" text-anchor="start" style="white-space: pre;" direction="ltr" dominant-baseline="text-before-edge">RowSupplier rowSupplier</text><text x="0" y="38.4" font-family="Cascadia, Segoe UI Emoji" font-size="16px" fill="#1e1e1e" text-anchor="start" style="white-space: pre;" direction="ltr" dominant-baseline="text-before-edge">int maxRowSize</text></g><g transform="translate(11.460947709925108 166.66586668725103) rotate(0 75 19.200000000000003)"><text x="0" y="0" font-family="Cascadia, Segoe UI Emoji" font-size="16px" fill="#1e1e1e" text-anchor="start" style="white-space: pre;" direction="ltr" dominant-baseline="text-before-edge">TextEdit buffer</text><text x="0" y="19.2" font-family="Cascadia, Segoe UI Emoji" font-size="16px" fill="#1e1e1e" text-anchor="start" style="white-space: pre;" direction="ltr" dominant-baseline="text-before-edge">ScreenText texts</text></g><g transform="translate(406.3546747319839 93.29990850710396) rotate(0 51.5625 9.599999999999994)"><text x="0" y="0" font-family="Cascadia, Segoe UI Emoji" font-size="16px" fill="#1e1e1e" text-anchor="start" style="white-space: pre;" direction="ltr" dominant-baseline="text-before-edge">UI layouted</text></g><g stroke-linecap="round" transform="translate(619.973009333891 414.4823928533816) rotate(0 57.5 15)"><path d="M7.5 0 M7.5 0 C26.54 -0.55, 49.93 0.52, 107.5 0 M7.5 0 C30.81 -0.07, 52.71 -0.13, 107.5 0 M107.5 0 C112.53 -0.55, 114.69 4.17, 115 7.5 M107.5 0 C110.98 -1.31, 115.12 3.96, 115 7.5 M115 7.5 C115.95 12.4, 115.09 14.73, 115 22.5 M115 7.5 C115.07 10.21, 115.1 13.95, 115 22.5 M115 22.5 C115.67 25.96, 114.12 30.71, 107.5 30 M115 22.5 C116.35 26.44, 113.7 28.03, 107.5 30 M107.5 30 C73.15 30.2, 41.28 28, 7.5 30 M107.5 30 C68.45 29.93, 31.89 29.53, 7.5 30 M7.5 30 C1.96 30.39, 0.88 27.12, 0 22.5 M7.5 30 C0.64 31.11, -2.02 29.31, 0 22.5 M0 22.5 C-0.35 20.57, -0.05 16.97, 0 7.5 M0 22.5 C0.56 16.62, -0.44 11.67, 0 7.5 M0 7.5 C1.72 1.12, 3.35 -1.25, 7.5 0 M0 7.5 C1.99 4.56, 3.88 -0.76, 7.5 0" stroke="#1e1e1e" stroke-width="1" fill="none"></path></g><g transform="translate(645.2250311234418 419.4823928533816) rotate(0 32.24797821044922 10)"><text x="32.24797821044922" y="0" font-family="Virgil, Segoe UI Emoji" font-size="16px" fill="#1e1e1e" text-anchor="middle" style="white-space: pre;" direction="ltr" dominant-baseline="text-before-edge">SliceView</text></g><g stroke-linecap="round"><g transform="translate(502.6897828719196 430.22582041902547) rotate(0 53.0502900528406 -1.2057692205229102)"><path d="M0.18 0.09 C18.05 0.13, 89.59 -0.55, 107.28 -0.62 M-1.18 -0.91 C16.52 -1.16, 87.97 -2.27, 106.28 -2.5" stroke="#1e1e1e" stroke-width="1" fill="none"></path></g><g transform="translate(502.6897828719196 430.22582041902547) rotate(0 53.0502900528406 -1.2057692205229102)"><path d="M78.38 7.99 C87.61 3.09, 96.59 2.36, 105.92 -2.17 M78.73 9.15 C88.98 2.96, 100.08 0.19, 107.16 -1.79" stroke="#1e1e1e" stroke-width="1" fill="none"></path></g><g transform="translate(502.6897828719196 430.22582041902547) rotate(0 53.0502900528406 -1.2057692205229102)"><path d="M78.09 -12.53 C87.25 -11.19, 96.32 -5.67, 105.92 -2.17 M78.43 -11.37 C88.76 -9.86, 99.97 -4.92, 107.16 -1.79" stroke="#1e1e1e" stroke-width="1" fill="none"></path></g></g><mask></mask><g transform="translate(801.0536363265094 677.0049646414961) rotate(0 39.31196594238281 10)"><text x="0" y="0" font-family="Virgil, Segoe UI Emoji" font-size="16px" fill="#1e1e1e" text-anchor="start" style="white-space: pre;" direction="ltr" dominant-baseline="text-before-edge">model.slice</text></g><g transform="translate(257.83622236812835 119.81218689563241) rotate(0 46.84796905517578 20)"><text x="0" y="0" font-family="Virgil, Segoe UI Emoji" font-size="16px" fill="#1e1e1e" text-anchor="start" style="white-space: pre;" direction="ltr" dominant-baseline="text-before-edge">screen</text><text x="0" y="20" font-family="Virgil, Segoe UI Emoji" font-size="16px" fill="#1e1e1e" text-anchor="start" style="white-space: pre;" direction="ltr" dominant-baseline="text-before-edge">scrolling etc</text></g><g transform="translate(442.69620053908426 449.8823414222867) rotate(0 89.0625 19.200000000000003)"><text x="0" y="0" font-family="Cascadia, Segoe UI Emoji" font-size="16px" fill="#1e1e1e" text-anchor="start" style="white-space: pre;" direction="ltr" dominant-baseline="text-before-edge">Content content</text><text x="0" y="19.2" font-family="Cascadia, Segoe UI Emoji" font-size="16px" fill="#1e1e1e" text-anchor="start" style="white-space: pre;" direction="ltr" dominant-baseline="text-before-edge">EditQueue editQueue</text></g><g transform="translate(884.8719243442313 398.51986152798514) rotate(0 65.625 9.599999999999994)"><text x="0" y="0" font-family="Cascadia, Segoe UI Emoji" font-size="16px" fill="#1e1e1e" text-anchor="start" style="white-space: pre;" direction="ltr" dominant-baseline="text-before-edge">Holder of rows</text></g><g stroke-linecap="round"><g transform="translate(325.56217930021063 401.5098627126007) rotate(0 186.45637763123273 -86.608968937661)"><path d="M-0.31 -0.05 C62.01 -28.81, 311.12 -144.53, 373.23 -173.17 M1.72 -1.12 C64.04 -29.71, 311.16 -143.29, 372.81 -172.1" stroke="#1e1e1e" stroke-width="1" fill="none"></path></g></g><mask></mask><g transform="translate(245.99352342942205 679.4524385040883) rotate(0 52.05596923828125 10)"><text x="0" y="0" font-family="Virgil, Segoe UI Emoji" font-size="16px" fill="#1e1e1e" text-anchor="start" style="white-space: pre;" direction="ltr" dominant-baseline="text-before-edge">model.content</text></g></svg>
