<svg version="1.1" xmlns="http://www.w3.org/2000/svg" viewBox="0 0 1232.033381678477 1055.9267378307522" width="1232.033381678477" height="1055.9267378307522">
    <!-- svg-source:excalidraw -->

    <defs>
        <style class="style-fonts">
            @font-face {
            font-family: "Virgil";
            src: url("https://excalidraw.com/Virgil.woff2");
            }
            @font-face {
            font-family: "Cascadia";
            src: url("https://excalidraw.com/Cascadia.woff2");
            }
        </style>

    </defs>
    <rect x="0" y="0" width="1232.033381678477" height="1055.9267378307522" fill="#ffffff"></rect><g stroke-linecap="round" transform="translate(152.29559907459077 399.4124534884754) rotate(0 91.54901123046875 20.0296630859375)"><path d="M10.01 0 M10.01 0 C49.29 -0.3, 88.38 -2.67, 173.08 0 M10.01 0 C43.75 -0.56, 78.76 -0.16, 173.08 0 M173.08 0 C178.54 -1.98, 182.88 2.31, 183.1 10.01 M173.08 0 C179.3 0.39, 184.18 3.38, 183.1 10.01 M183.1 10.01 C181.26 15.99, 183.82 19.03, 183.1 30.04 M183.1 10.01 C183.13 17.22, 182.84 26.06, 183.1 30.04 M183.1 30.04 C184.62 38.29, 178.86 39.92, 173.08 40.06 M183.1 30.04 C181.63 34.65, 179.04 38.05, 173.08 40.06 M173.08 40.06 C116.21 40.04, 64.57 41.55, 10.01 40.06 M173.08 40.06 C139.46 41.23, 103.94 40.8, 10.01 40.06 M10.01 40.06 C1.45 38.47, 1.67 36.97, 0 30.04 M10.01 40.06 C4.8 38.94, 0.16 36.89, 0 30.04 M0 30.04 C-0.78 25.64, 0.24 20.58, 0 10.01 M0 30.04 C0.47 22.2, 0.01 15.29, 0 10.01 M0 10.01 C-0.65 4.95, 3.9 -1.04, 10.01 0 M0 10.01 C-1.66 2.63, 4.26 0.03, 10.01 0" stroke="#1e1e1e" stroke-width="1" fill="none"></path></g><g transform="translate(160.93467530750092 406.9421165744129) rotate(0 82.9099349975586 12.5)"><text x="82.9099349975586" y="0" font-family="Virgil, Segoe UI Emoji" font-size="20px" fill="#1e1e1e" text-anchor="middle" style="white-space: pre;" direction="ltr" dominant-baseline="text-before-edge">SyntaxTranslate</text></g><g stroke-linecap="round" transform="translate(240.60904075985866 286.02034620610937) rotate(0 13.4873046875 13.163528442382812)"><path d="M17.77 1.56 C20.47 2.44, 23.67 4.2, 25.22 6.5 C26.77 8.79, 27.66 12.47, 27.06 15.33 C26.46 18.18, 23.85 21.86, 21.64 23.63 C19.43 25.39, 16.78 25.96, 13.83 25.93 C10.88 25.9, 6.27 25.32, 3.93 23.43 C1.59 21.54, -0.04 17.44, -0.22 14.59 C-0.41 11.74, 1.25 8.71, 2.83 6.35 C4.41 4, 6.32 1.09, 9.26 0.46 C12.2 -0.18, 18.17 1.91, 20.49 2.55 C22.8 3.18, 23.12 4.02, 23.14 4.27 M9.55 1.64 C11.84 0.68, 14.74 0.6, 17.18 1.22 C19.62 1.84, 22.37 3.22, 24.19 5.35 C26 7.49, 28.21 11.23, 28.08 14.02 C27.95 16.81, 25.72 19.88, 23.41 22.09 C21.11 24.29, 17.45 27.14, 14.24 27.25 C11.03 27.37, 6.46 24.61, 4.17 22.77 C1.87 20.93, 1.13 18.7, 0.47 16.23 C-0.2 13.75, -0.91 10.42, 0.19 7.91 C1.28 5.4, 5.81 2.32, 7.04 1.18 C8.28 0.04, 7.38 0.76, 7.58 1.08" stroke="#1e1e1e" stroke-width="1" fill="none"></path></g><g transform="translate(275.96621849423366 286.318106215875) rotate(0 80.4499282836914 12.5)"><text x="0" y="0" font-family="Virgil, Segoe UI Emoji" font-size="20px" fill="#1e1e1e" text-anchor="start" style="white-space: pre;" direction="ltr" dominant-baseline="text-before-edge">StylingTranslate</text></g><g stroke-linecap="round" transform="translate(510.889378138951 432.6842386796027) rotate(0 13.4873046875 13.163528442382812)"><path d="M7.49 2.13 C9.98 0.88, 14.82 -0.28, 17.69 0.42 C20.55 1.12, 23.06 4.13, 24.68 6.32 C26.3 8.51, 27.71 10.85, 27.42 13.58 C27.14 16.32, 25.05 20.5, 22.96 22.73 C20.86 24.96, 17.63 26.76, 14.88 26.97 C12.12 27.17, 8.8 25.68, 6.45 23.95 C4.1 22.22, 1.72 19.5, 0.78 16.59 C-0.15 13.68, -0.57 9.26, 0.85 6.49 C2.27 3.72, 7.63 1.04, 9.29 -0.03 C10.95 -1.09, 10.72 -0.37, 10.82 0.12 M16.56 1.25 C19.32 1.17, 20.94 2.2, 22.7 3.96 C24.47 5.72, 26.95 8.69, 27.17 11.81 C27.4 14.93, 25.76 20.51, 24.05 22.68 C22.35 24.84, 19.9 24.31, 16.95 24.8 C14 25.3, 9.19 26.97, 6.34 25.66 C3.49 24.36, 0.69 19.52, -0.16 16.99 C-1.01 14.45, 0.19 12.75, 1.24 10.47 C2.29 8.2, 3.53 5.03, 6.14 3.33 C8.75 1.63, 15.46 0.99, 16.89 0.27 C18.33 -0.46, 15.08 -1.23, 14.73 -1.04" stroke="#1e1e1e" stroke-width="1" fill="none"></path></g><g transform="translate(546.246555873326 432.9819986893683) rotate(0 71.87994384765625 12.5)"><text x="0" y="0" font-family="Virgil, Segoe UI Emoji" font-size="20px" fill="#1e1e1e" text-anchor="start" style="white-space: pre;" direction="ltr" dominant-baseline="text-before-edge">SpanTranslate</text></g><g stroke-linecap="round"><g transform="translate(247.37320331793538 396.7657249728504) rotate(0 2.055215807787917 -42.168120864186136)"><path d="M-0.49 -0.25 C0.07 -14.24, 1.81 -70.09, 2.5 -84.09 M1.45 -1.42 C2.44 -15.22, 4.37 -69.1, 4.6 -82.74" stroke="#1e1e1e" stroke-width="1" fill="none"></path></g></g><mask></mask><g stroke-linecap="round" transform="translate(436.70026506696445 526.8143351151496) rotate(0 91.54901123046875 20.0296630859375)"><path d="M10.01 0 M10.01 0 C53.8 -1.27, 92.76 2.06, 173.08 0 M10.01 0 C59.12 -1.34, 108.14 -1.16, 173.08 0 M173.08 0 C178.25 0.7, 181.44 2.97, 183.1 10.01 M173.08 0 C181.35 0.8, 183.99 3.48, 183.1 10.01 M183.1 10.01 C181.7 18.2, 181.06 22.38, 183.1 30.04 M183.1 10.01 C182.07 16.95, 183.56 21.82, 183.1 30.04 M183.1 30.04 C181.8 35.91, 180.91 41.86, 173.08 40.06 M183.1 30.04 C181 34.75, 178.24 41.36, 173.08 40.06 M173.08 40.06 C133.39 40.47, 94.43 40.88, 10.01 40.06 M173.08 40.06 C125.13 40.27, 79.39 40.1, 10.01 40.06 M10.01 40.06 C3.63 41.28, 0.8 35.15, 0 30.04 M10.01 40.06 C3.93 40.07, 0.1 35.2, 0 30.04 M0 30.04 C1.96 25.84, -0.23 18.92, 0 10.01 M0 30.04 C0.43 23.39, -0.68 15.14, 0 10.01 M0 10.01 C-1.92 1.46, 5.19 -0.92, 10.01 0 M0 10.01 C-1.47 5.24, 4.58 -1.36, 10.01 0" stroke="#1e1e1e" stroke-width="1" fill="none"></path></g><g transform="translate(445.0093394688199 534.3439982010871) rotate(0 83.23993682861328 12.5)"><text x="83.23993682861328" y="0" font-family="Virgil, Segoe UI Emoji" font-size="20px" fill="#1e1e1e" text-anchor="middle" style="white-space: pre;" direction="ltr" dominant-baseline="text-before-edge">FxSpanTranslate</text></g><g stroke-linecap="round" transform="translate(996.4639718191968 432.2759352825602) rotate(0 91.54901123046875 20.0296630859375)"><path d="M10.01 0 M10.01 0 C53.44 -1.64, 93.24 0.53, 173.08 0 M10.01 0 C64.81 -0.63, 119.42 -2.02, 173.08 0 M173.08 0 C178.62 -1, 182.28 3.59, 183.1 10.01 M173.08 0 C181.62 -1.72, 182.1 4.95, 183.1 10.01 M183.1 10.01 C183.06 16.73, 182.28 26.84, 183.1 30.04 M183.1 10.01 C182.2 13.24, 182.94 18.67, 183.1 30.04 M183.1 30.04 C182.21 34.8, 179.87 39.26, 173.08 40.06 M183.1 30.04 C182.18 36.95, 181.64 40.6, 173.08 40.06 M173.08 40.06 C113.73 41.39, 52.67 40.39, 10.01 40.06 M173.08 40.06 C124.3 40.62, 74.4 40.3, 10.01 40.06 M10.01 40.06 C2.92 41.01, -1.09 36.62, 0 30.04 M10.01 40.06 C2.29 38.74, 1.82 37.84, 0 30.04 M0 30.04 C-0.54 24.42, -1.55 15.33, 0 10.01 M0 30.04 C-0.86 23.2, 0.69 14.13, 0 10.01 M0 10.01 C1.82 5.29, 2.74 -1.57, 10.01 0 M0 10.01 C-0.78 3.69, 2.53 -1.76, 10.01 0" stroke="#1e1e1e" stroke-width="1" fill="none"></path></g><g transform="translate(1032.8630273001538 439.8055983684977) rotate(0 55.14995574951172 12.5)"><text x="55.14995574951172" y="0" font-family="Virgil, Segoe UI Emoji" font-size="20px" fill="#1e1e1e" text-anchor="middle" style="white-space: pre;" direction="ltr" dominant-baseline="text-before-edge">SpanRecord</text></g><g stroke-linecap="round" transform="translate(151.45629882812506 683.7592639655957) rotate(0 91.54901123046875 20.0296630859375)"><path d="M10.01 0 M10.01 0 C72.34 0.06, 133.21 2.26, 173.08 0 M10.01 0 C51.65 1.52, 90.7 1.33, 173.08 0 M173.08 0 C178.11 -0.26, 184.09 3.23, 183.1 10.01 M173.08 0 C177.74 1.92, 181.77 4.44, 183.1 10.01 M183.1 10.01 C183.09 15.5, 182.8 22.02, 183.1 30.04 M183.1 10.01 C183.22 17.05, 182.9 23.99, 183.1 30.04 M183.1 30.04 C181.82 38.66, 181.62 38.56, 173.08 40.06 M183.1 30.04 C184.1 34.78, 180.58 41.22, 173.08 40.06 M173.08 40.06 C133.32 37.16, 89.38 37.11, 10.01 40.06 M173.08 40.06 C127.67 40.88, 83.02 41.94, 10.01 40.06 M10.01 40.06 C1.59 41.18, 1.32 35.02, 0 30.04 M10.01 40.06 C3.61 41.9, 0.27 34.92, 0 30.04 M0 30.04 C-1.43 22.97, 0.88 21.25, 0 10.01 M0 30.04 C-0.95 24.94, -0.51 20.03, 0 10.01 M0 10.01 C1.74 3.69, 1.73 0.1, 10.01 0 M0 10.01 C1.89 1.17, 4.44 1.76, 10.01 0" stroke="#1e1e1e" stroke-width="1" fill="none"></path></g><g transform="translate(191.245346069336 691.2889270515332) rotate(0 51.75996398925781 12.5)"><text x="51.75996398925781" y="0" font-family="Virgil, Segoe UI Emoji" font-size="20px" fill="#1e1e1e" text-anchor="middle" style="white-space: pre;" direction="ltr" dominant-baseline="text-before-edge">JavaLexer</text></g><g stroke-linecap="round" transform="translate(10 618.1303402769798) rotate(0 91.54901123046875 20.0296630859375)"><path d="M10.01 0 M10.01 0 C70.09 -2.79, 127.09 -1.62, 173.08 0 M10.01 0 C61.99 -0.69, 113.13 -0.52, 173.08 0 M173.08 0 C179.4 -0.38, 183.31 2.85, 183.1 10.01 M173.08 0 C178.77 0.17, 184.71 4.69, 183.1 10.01 M183.1 10.01 C182.51 17.98, 183.11 25.09, 183.1 30.04 M183.1 10.01 C182.36 16.7, 182.34 22.13, 183.1 30.04 M183.1 30.04 C183.41 38.63, 180.06 38.97, 173.08 40.06 M183.1 30.04 C181.54 36.2, 180.41 39.14, 173.08 40.06 M173.08 40.06 C125.3 39.2, 73.7 38.7, 10.01 40.06 M173.08 40.06 C108.5 41.42, 44.86 41.92, 10.01 40.06 M10.01 40.06 C2.78 41.81, 0.52 38.55, 0 30.04 M10.01 40.06 C1.83 41.97, -0.65 37.2, 0 30.04 M0 30.04 C-0.57 22.16, -1.7 15.97, 0 10.01 M0 30.04 C-0.66 22.72, -1.12 15.63, 0 10.01 M0 10.01 C-1.4 4.79, 4.01 0.32, 10.01 0 M0 10.01 C1.53 3.71, 1.39 0.43, 10.01 0" stroke="#1e1e1e" stroke-width="1" fill="none"></path></g><g transform="translate(31.889083862304688 625.6600033629173) rotate(0 69.65992736816406 12.5)"><text x="69.65992736816406" y="0" font-family="Virgil, Segoe UI Emoji" font-size="20px" fill="#1e1e1e" text-anchor="middle" style="white-space: pre;" direction="ltr" dominant-baseline="text-before-edge">ScopeTreeImpl</text></g><g stroke-linecap="round" transform="translate(851.8671939967394 624.084551600181) rotate(0 91.54901123046875 20.0296630859375)"><path d="M10.01 0 M10.01 0 C63.88 -1.29, 121.92 -1.06, 173.08 0 M10.01 0 C63.44 0.64, 116.9 1.02, 173.08 0 M173.08 0 C179.37 -1.48, 181.6 1.46, 183.1 10.01 M173.08 0 C181.89 -1.15, 182.4 3.39, 183.1 10.01 M183.1 10.01 C181.52 19.29, 184.96 25.47, 183.1 30.04 M183.1 10.01 C184.08 18.47, 184.18 24.29, 183.1 30.04 M183.1 30.04 C184.29 35.47, 179.63 40.03, 173.08 40.06 M183.1 30.04 C182.24 37.99, 181.28 40.97, 173.08 40.06 M173.08 40.06 C116.35 39.61, 60.69 39.16, 10.01 40.06 M173.08 40.06 C125.92 40.52, 78.75 40.86, 10.01 40.06 M10.01 40.06 C2.36 40.42, 1.91 35.14, 0 30.04 M10.01 40.06 C3.9 40.36, 1.14 37.06, 0 30.04 M0 30.04 C0.73 25.2, -1.8 22.26, 0 10.01 M0 30.04 C-0.09 23.14, -0.44 18.9, 0 10.01 M0 10.01 C0.91 2.76, 2 -0.72, 10.01 0 M0 10.01 C2.13 3.4, 4.44 -0.13, 10.01 0" stroke="#1e1e1e" stroke-width="1" fill="none"></path></g><g transform="translate(859.6662738917589 631.6142146861185) rotate(0 83.74993133544922 12.5)"><text x="83.74993133544922" y="0" font-family="Virgil, Segoe UI Emoji" font-size="20px" fill="#1e1e1e" text-anchor="middle" style="white-space: pre;" direction="ltr" dominant-baseline="text-before-edge">LayoutTranslate</text></g><g stroke-linecap="round"><g transform="translate(524.4915807682605 521.0198080669189) rotate(0 0.7315108854330319 -29.891610470772786)"><path d="M-1.14 0.22 C-1.24 -9.84, -0.2 -50.11, 0.22 -60 M0.47 -0.71 C0.7 -10.64, 2.53 -48.63, 2.61 -58.72" stroke="#1e1e1e" stroke-width="1" fill="none"></path></g></g><mask></mask><g stroke-linecap="round"><g transform="translate(740.4392380063051 815.874980360446) rotate(0 0.3314462076582174 -17.649248162393448)"><path d="M-0.62 0.66 C-0.43 -5.36, -0.04 -30.17, 0.12 -35.95 M1.26 -0.05 C1.45 -5.94, -0.15 -28.88, -0.33 -34.83" stroke="#1e1e1e" stroke-width="1" fill="none"></path></g></g><mask></mask><g stroke-linecap="round" transform="translate(725.6590310959591 149.3468588607317) rotate(0 13.4873046875 13.163528442382812)"><path d="M11.47 -0.12 C14.21 -0.67, 18.48 0.79, 20.87 2.37 C23.26 3.96, 24.89 6.94, 25.81 9.41 C26.73 11.89, 27.38 14.69, 26.37 17.24 C25.36 19.78, 22.42 23.36, 19.75 24.7 C17.08 26.04, 13.23 25.63, 10.33 25.27 C7.43 24.9, 4.09 24.64, 2.35 22.51 C0.61 20.37, -0.24 15.44, -0.08 12.46 C0.07 9.48, 0.91 6.71, 3.27 4.64 C5.62 2.57, 12.11 0.66, 14.06 0.02 C16 -0.62, 14.97 0.64, 14.93 0.79 M11.76 -1.21 C14.67 -1.65, 18.96 0.21, 21.26 1.8 C23.56 3.39, 24.79 5.6, 25.56 8.33 C26.34 11.07, 26.87 15.44, 25.89 18.22 C24.92 21, 22.42 23.56, 19.73 24.99 C17.03 26.42, 12.61 27.31, 9.71 26.82 C6.8 26.32, 3.95 24.44, 2.29 22 C0.62 19.57, -0.63 15.14, -0.28 12.22 C0.07 9.29, 2.31 6.47, 4.38 4.46 C6.44 2.45, 10.65 0.79, 12.09 0.17 C13.53 -0.44, 13.06 0.58, 12.99 0.76" stroke="#1e1e1e" stroke-width="1" fill="none"></path></g><g transform="translate(761.0162088303341 149.6446188704973) rotate(0 80.70994567871094 12.5)"><text x="0" y="0" font-family="Virgil, Segoe UI Emoji" font-size="20px" fill="#1e1e1e" text-anchor="start" style="white-space: pre;" direction="ltr" dominant-baseline="text-before-edge">Translate&lt;I, O&gt;</text></g><g stroke-linecap="round" transform="translate(724.8960916428341 748.178166408165) rotate(0 13.4873046875 13.163528442382812)"><path d="M10.81 0.82 C13.39 -0.02, 16.4 0.16, 18.86 1.26 C21.32 2.35, 24.43 4.82, 25.57 7.41 C26.72 10, 26.47 14.14, 25.73 16.78 C24.99 19.42, 23.28 21.55, 21.13 23.26 C18.98 24.97, 15.69 27.21, 12.83 27.06 C9.97 26.92, 6.13 24.57, 3.97 22.38 C1.8 20.18, 0.16 16.62, -0.16 13.88 C-0.48 11.14, 0.26 8.15, 2.06 5.94 C3.86 3.73, 8.9 1.6, 10.63 0.62 C12.36 -0.36, 12.21 -0.03, 12.44 0.08 M13.05 -0.98 C16.06 -1.01, 20.71 1.08, 23.01 3.07 C25.32 5.07, 26.57 8.05, 26.89 11.01 C27.22 13.96, 26.63 18.55, 24.95 20.81 C23.26 23.07, 19.27 23.81, 16.77 24.58 C14.28 25.35, 12.67 26.06, 9.96 25.43 C7.24 24.8, 2.02 23.15, 0.49 20.8 C-1.05 18.45, 0 14.35, 0.75 11.33 C1.49 8.31, 2.94 4.49, 4.97 2.69 C7.01 0.88, 11.55 0.98, 12.95 0.52 C14.35 0.06, 13.41 -0.27, 13.39 -0.1" stroke="#1e1e1e" stroke-width="1" fill="none"></path></g><g transform="translate(760.2532693772091 748.4759264179306) rotate(0 52.539955139160156 12.5)"><text x="0" y="0" font-family="Virgil, Segoe UI Emoji" font-size="20px" fill="#1e1e1e" text-anchor="start" style="white-space: pre;" direction="ltr" dominant-baseline="text-before-edge">LineLayout</text></g><g stroke-linecap="round" transform="translate(554.628757658459 913.8557438356205) rotate(0 13.4873046875 13.163528442382812)"><path d="M18.1 2 C20.44 3, 23.12 5.25, 24.66 7.55 C26.19 9.86, 28.01 13.08, 27.32 15.85 C26.63 18.61, 23.08 22.44, 20.52 24.13 C17.96 25.83, 14.8 26.19, 11.94 26.01 C9.08 25.82, 5.23 24.82, 3.35 23.04 C1.47 21.25, 0.87 18.04, 0.66 15.28 C0.46 12.52, 0.67 8.98, 2.12 6.49 C3.57 3.99, 6.39 1.14, 9.38 0.31 C12.38 -0.52, 17.92 0.95, 20.09 1.52 C22.26 2.09, 22.44 3.41, 22.38 3.72 M15.37 -0.71 C17.9 -0.25, 20.92 2.11, 23.04 4.44 C25.17 6.77, 27.93 10.36, 28.14 13.27 C28.34 16.18, 26.22 19.57, 24.28 21.9 C22.34 24.22, 19.65 26.58, 16.5 27.2 C13.36 27.81, 8.09 27.3, 5.4 25.58 C2.7 23.86, 0.81 20, 0.33 16.89 C-0.15 13.78, 1.43 9.26, 2.49 6.93 C3.54 4.59, 4.35 4.14, 6.66 2.88 C8.97 1.62, 14.73 -0.04, 16.36 -0.65 C17.99 -1.26, 16.63 -1, 16.46 -0.78" stroke="#1e1e1e" stroke-width="1" fill="none"></path></g><g transform="translate(589.985935392834 914.1535038453861) rotate(0 58.99994659423828 12.5)"><text x="0" y="0" font-family="Virgil, Segoe UI Emoji" font-size="20px" fill="#1e1e1e" text-anchor="start" style="white-space: pre;" direction="ltr" dominant-baseline="text-before-edge">TextLayout</text></g><g stroke-linecap="round" transform="translate(1083.0802085513164 332.0668034059328) rotate(0 13.4873046875 13.163528442382812)"><path d="M12.23 -0.49 C14.91 -1.12, 17.96 -0.47, 20.41 1.24 C22.86 2.95, 25.98 7.06, 26.92 9.79 C27.86 12.52, 27.44 15.13, 26.03 17.62 C24.63 20.12, 21.27 23.25, 18.49 24.78 C15.71 26.31, 11.99 27.57, 9.34 26.83 C6.69 26.08, 4.28 22.62, 2.58 20.29 C0.88 17.97, -0.97 15.53, -0.88 12.88 C-0.79 10.23, 0.75 6.41, 3.12 4.38 C5.5 2.34, 11.37 1.31, 13.39 0.68 C15.42 0.05, 15.33 0.58, 15.26 0.61 M12.98 -0.9 C15.66 -0.65, 19.91 2.55, 22.05 4.42 C24.19 6.3, 25.12 7.99, 25.82 10.35 C26.52 12.71, 27.76 15.85, 26.25 18.59 C24.73 21.33, 19.64 25.81, 16.74 26.79 C13.84 27.77, 11.52 25.89, 8.84 24.48 C6.17 23.08, 2.33 20.56, 0.67 18.34 C-0.99 16.13, -1.86 13.63, -1.12 11.19 C-0.37 8.75, 2.83 5.82, 5.15 3.72 C7.47 1.62, 11.3 -0.61, 12.8 -1.43 C14.29 -2.25, 13.86 -1.9, 14.14 -1.22" stroke="#1e1e1e" stroke-width="1" fill="none"></path></g><g transform="translate(1118.4373862856914 332.3645634156984) rotate(0 22.34998321533203 12.5)"><text x="0" y="0" font-family="Virgil, Segoe UI Emoji" font-size="20px" fill="#1e1e1e" text-anchor="start" style="white-space: pre;" direction="ltr" dominant-baseline="text-before-edge">Span</text></g><g stroke-linecap="round" transform="translate(308.05300431024466 605.333492161513) rotate(0 13.4873046875 13.163528442382812)"><path d="M18.41 2.06 C21.14 3.04, 24.7 4.4, 26.1 6.65 C27.51 8.91, 27.64 12.66, 26.82 15.61 C26 18.56, 23.61 22.73, 21.21 24.36 C18.8 25.99, 15.12 25.8, 12.4 25.41 C9.68 25.01, 6.86 23.79, 4.89 21.99 C2.91 20.18, 0.89 17.23, 0.54 14.58 C0.2 11.93, 1.26 8.5, 2.81 6.09 C4.35 3.68, 7.05 0.92, 9.81 0.09 C12.57 -0.73, 17.62 0.69, 19.38 1.15 C21.15 1.62, 20.49 2.65, 20.42 2.88 M13.22 1.47 C16.3 1.23, 21.69 0.94, 24.07 2.4 C26.46 3.87, 27.31 7.17, 27.52 10.28 C27.74 13.39, 27.13 18.31, 25.34 21.08 C23.55 23.85, 19.81 25.93, 16.78 26.88 C13.75 27.82, 9.92 28.07, 7.15 26.74 C4.38 25.42, 1.54 21.76, 0.18 18.94 C-1.18 16.12, -1.75 12.4, -0.99 9.83 C-0.23 7.25, 2.38 5.16, 4.72 3.5 C7.06 1.85, 11.67 0.17, 13.07 -0.13 C14.46 -0.42, 13.13 1.34, 13.08 1.72" stroke="#1e1e1e" stroke-width="1" fill="none"></path></g><g transform="translate(343.41018204461966 605.6312521712787) rotate(0 26.8499755859375 12.5)"><text x="0" y="0" font-family="Virgil, Segoe UI Emoji" font-size="20px" fill="#1e1e1e" text-anchor="start" style="white-space: pre;" direction="ltr" dominant-baseline="text-before-edge">Lexer</text></g><g stroke-linecap="round" transform="translate(96.61623673211955 517.9212084003524) rotate(0 13.4873046875 13.163528442382812)"><path d="M12.81 0.76 C15.49 0.35, 18.92 1.58, 21.22 3.08 C23.52 4.57, 25.89 7.08, 26.59 9.73 C27.3 12.38, 26.75 16.48, 25.45 18.98 C24.15 21.48, 21.38 23.47, 18.79 24.73 C16.2 25.99, 12.55 27.17, 9.91 26.54 C7.27 25.91, 4.45 23.43, 2.93 20.95 C1.42 18.47, 0.69 14.42, 0.82 11.65 C0.94 8.89, 1.6 6.17, 3.7 4.36 C5.79 2.55, 11.6 1.36, 13.39 0.8 C15.17 0.24, 14.43 1.08, 14.4 1.02 M18.47 2.27 C21.37 2.88, 24.26 3.73, 25.47 5.89 C26.68 8.05, 26.23 12.44, 25.73 15.25 C25.23 18.06, 24.53 20.83, 22.47 22.74 C20.41 24.65, 16.36 26.48, 13.37 26.73 C10.38 26.98, 6.84 26.26, 4.55 24.24 C2.27 22.22, 0.26 17.35, -0.34 14.61 C-0.93 11.88, -0.48 9.97, 0.99 7.83 C2.46 5.68, 5.79 2.85, 8.47 1.75 C11.14 0.66, 15.6 1.16, 17.06 1.24 C18.51 1.32, 17.15 1.88, 17.2 2.24" stroke="#1e1e1e" stroke-width="1" fill="none"></path></g><g transform="translate(131.97341446649455 518.218968410118) rotate(0 50.3199462890625 12.5)"><text x="0" y="0" font-family="Virgil, Segoe UI Emoji" font-size="20px" fill="#1e1e1e" text-anchor="start" style="white-space: pre;" direction="ltr" dominant-baseline="text-before-edge">ScopeTree</text></g><g stroke-linecap="round"><g transform="translate(263.0477206794497 288.0474517974449) rotate(0 234.31129209125098 -55.30723478616207)"><path d="M0.45 -0.8 C78.27 -19.4, 389.08 -93.61, 467.13 -112.02 M-0.78 1.4 C77.41 -17.05, 391.2 -92.41, 469.4 -110.97" stroke="#1e1e1e" stroke-width="1" fill="none"></path></g></g><mask></mask><g transform="translate(283.32006955614276 320.7110510134229) rotate(0 140.625 9.599999999999994)"><text x="0" y="0" font-family="Cascadia, Segoe UI Emoji" font-size="16px" fill="#1e1e1e" text-anchor="start" style="white-space: pre;" direction="ltr" dominant-baseline="text-before-edge">Translate&lt;Textual, StyledText&gt;</text></g><g transform="translate(564.5401708779215 462.2721713111515) rotate(0 154.6875 9.600000000000001)"><text x="0" y="0" font-family="Cascadia, Segoe UI Emoji" font-size="16px" fill="#1e1e1e" text-anchor="start" style="white-space: pre;" direction="ltr" dominant-baseline="text-before-edge">Translate&lt;StyledText, List&lt;Span&gt;&gt;</text></g><g transform="translate(916.3067368793222 681.7912783924606) rotate(0 145.3125 9.599999999999994)"><text x="0" y="0" font-family="Cascadia, Segoe UI Emoji" font-size="16px" fill="#1e1e1e" text-anchor="start" style="white-space: pre;" direction="ltr" dominant-baseline="text-before-edge">Translate&lt;List&lt;Span&gt;, TextLine&gt;</text></g><g stroke-linecap="round"><g transform="translate(538.1743088693152 426.41658437777386) rotate(0 93.4137002946144 -123.46380699336618)"><path d="M-0.46 0.27 C30.7 -40.51, 156.38 -204.24, 187.29 -245.34 M1.5 -0.63 C32.58 -41.72, 155.99 -206.44, 186.95 -247.2" stroke="#1e1e1e" stroke-width="1" fill="none"></path></g></g><mask></mask><g stroke-linecap="round"><g transform="translate(964.412913662542 614.7042448203395) rotate(0 -114.82407167479951 -218.54286580684703)"><path d="M0.96 0.4 C-37.3 -72.16, -191.31 -362.97, -230.08 -435.93 M0 -0.44 C-38.29 -73.25, -192.41 -364.85, -230.61 -437.49" stroke="#1e1e1e" stroke-width="1" fill="none"></path></g></g><mask></mask><g stroke-linecap="round"><g transform="translate(533.430024848958 345.24916512625543) rotate(0 88.10118619016345 56.00480031285972)"><path d="M-0.94 -0.34 C22.67 5.54, 112.39 16.8, 142.07 35.58 C171.75 54.36, 171.33 99.64, 177.14 112.35" stroke="#1e1e1e" stroke-width="1" fill="none" stroke-dasharray="8 8.5"></path></g><g transform="translate(533.430024848958 345.24916512625543) rotate(0 88.10118619016345 56.00480031285972)"><path d="M159.95 88.96 C167.23 97.01, 170.78 105.06, 175.38 113.41" stroke="#1e1e1e" stroke-width="1" fill="none"></path></g><g transform="translate(533.430024848958 345.24916512625543) rotate(0 88.10118619016345 56.00480031285972)"><path d="M179.89 84.11 C180.49 93.64, 177.34 103.32, 175.38 113.41" stroke="#1e1e1e" stroke-width="1" fill="none"></path></g></g><mask></mask><g stroke-linecap="round"><g transform="translate(850.5728791085396 492.57984056575583) rotate(0 113.99770554747147 92.85737753035268)"><path d="M1.01 0.28 C36.99 16.07, 183.29 63.16, 215.86 94.02 C248.42 124.87, 199.5 170.12, 196.39 185.43" stroke="#1e1e1e" stroke-width="1" fill="none" stroke-dasharray="8 8.5"></path></g><g transform="translate(850.5728791085396 492.57984056575583) rotate(0 113.99770554747147 92.85737753035268)"><path d="M201.86 155.33 C199.98 163.42, 196.39 173.58, 195.28 184.96" stroke="#1e1e1e" stroke-width="1" fill="none"></path></g><g transform="translate(850.5728791085396 492.57984056575583) rotate(0 113.99770554747147 92.85737753035268)"><path d="M219.7 165.46 C212.59 170.7, 203.71 177.85, 195.28 184.96" stroke="#1e1e1e" stroke-width="1" fill="none"></path></g></g><mask></mask><g stroke-linecap="round" transform="translate(646.2641341692926 821.3860582624163) rotate(0 91.54901123046875 17.5)"><path d="M8.75 0 M8.75 0 C51.99 1.96, 93.48 -0.09, 174.35 0 M8.75 0 C43.42 1.44, 78.93 1.59, 174.35 0 M174.35 0 C181.07 -0.86, 181.44 3.25, 183.1 8.75 M174.35 0 C180.44 -1.93, 184.55 1.77, 183.1 8.75 M183.1 8.75 C183.33 16.44, 183.92 22.46, 183.1 26.25 M183.1 8.75 C183.69 14.21, 183.03 20.61, 183.1 26.25 M183.1 26.25 C185.04 34.02, 182.02 35.59, 174.35 35 M183.1 26.25 C184.73 31.71, 179.77 35.97, 174.35 35 M174.35 35 C122.97 33.96, 69.13 35.54, 8.75 35 M174.35 35 C117.01 34.91, 58.34 34.36, 8.75 35 M8.75 35 C4.39 34.4, 1.23 33.81, 0 26.25 M8.75 35 C1.37 36.58, 1.12 31.77, 0 26.25 M0 26.25 C-1.5 21.55, 1.46 17.16, 0 8.75 M0 26.25 C0.4 22.16, -0.52 19.31, 0 8.75 M0 8.75 C-1.72 3.51, 4.48 -1.44, 8.75 0 M0 8.75 C-0.86 2.88, 1.57 2.28, 8.75 0" stroke="#1e1e1e" stroke-width="1" fill="none"></path></g><g transform="translate(673.9131972796441 826.3860582624163) rotate(0 63.89994812011719 12.5)"><text x="63.89994812011719" y="0" font-family="Virgil, Segoe UI Emoji" font-size="20px" fill="#1e1e1e" text-anchor="middle" style="white-space: pre;" direction="ltr" dominant-baseline="text-before-edge">FxLineLayout</text></g><g stroke-linecap="round"><g transform="translate(844.716570343958 653.2234886998734) rotate(0 -51.075501818256726 42.51378643252795)"><path d="M0.34 -0.49 C-16.69 13.87, -85.6 72.22, -102.49 86.82 M-0.95 -1.79 C-17.57 12.18, -83.46 70.63, -100.2 85.16" stroke="#1e1e1e" stroke-width="1" fill="none"></path></g><g transform="translate(844.716570343958 653.2234886998734) rotate(0 -51.075501818256726 42.51378643252795)"><path d="M-86.6 57.5 C-88.12 67.23, -91.61 71.97, -100.92 86.33 M-85.36 58.51 C-91.58 67.33, -95.51 77.1, -99.3 86" stroke="#1e1e1e" stroke-width="1" fill="none"></path></g><g transform="translate(844.716570343958 653.2234886998734) rotate(0 -51.075501818256726 42.51378643252795)"><path d="M-73.06 72.92 C-78.38 78.47, -85.57 78.99, -100.92 86.33 M-71.83 73.93 C-82.94 77.3, -91.62 81.64, -99.3 86" stroke="#1e1e1e" stroke-width="1" fill="none"></path></g></g><mask></mask><g stroke-linecap="round"><g transform="translate(1093.6166224890412 424.46743874488806) rotate(0 -0.2151813753187639 -28.690277992412106)"><path d="M-0.91 -0.53 C-1.08 -9.93, -0.47 -47.66, -0.36 -57.39 M0.82 1.8 C0.44 -7.86, -0.97 -49.21, -1.25 -59.18" stroke="#1e1e1e" stroke-width="1" fill="none"></path></g></g><mask></mask><g stroke-linecap="round"><g transform="translate(271.7988478419145 675.9507674279234) rotate(0 17.4192639616857 -20.970116095032388)"><path d="M1.02 -0.6 C6.51 -7.69, 26.99 -36.69, 32.62 -43.64 M0.1 1.7 C5.96 -5.16, 28.99 -34.83, 34.74 -42.51" stroke="#1e1e1e" stroke-width="1" fill="none"></path></g></g><mask></mask><g stroke-linecap="round"><g transform="translate(107.15265066984443 610.3218437393077) rotate(0 -0.6199598068427008 -29.669435699723188)"><path d="M-0.18 0.17 C0.05 -9.34, 0.4 -47.88, 0.49 -57.6 M-1.73 -0.78 C-1.5 -10.62, -0.26 -50.15, 0.05 -59.51" stroke="#1e1e1e" stroke-width="1" fill="none"></path></g></g><mask></mask><g stroke-linecap="round" transform="translate(321.80002284116773 737.1389705113003) rotate(0 91.54901123046875 20.0296630859375)"><path d="M10.01 0 M10.01 0 C61.57 1.19, 115.03 -2.04, 173.08 0 M10.01 0 C55.72 -0.65, 100.62 0.36, 173.08 0 M173.08 0 C180.68 0.38, 184.64 1.59, 183.1 10.01 M173.08 0 C182.04 -1.7, 182.68 4.67, 183.1 10.01 M183.1 10.01 C184.18 13.79, 181.28 20.45, 183.1 30.04 M183.1 10.01 C182.39 17.14, 183.54 25.1, 183.1 30.04 M183.1 30.04 C183.98 36.91, 180.4 38.89, 173.08 40.06 M183.1 30.04 C181.2 37.71, 178.79 38.33, 173.08 40.06 M173.08 40.06 C129.83 39.56, 82.64 37.23, 10.01 40.06 M173.08 40.06 C124.15 40.75, 75.62 40.88, 10.01 40.06 M10.01 40.06 C2.74 40.31, 0.01 37.04, 0 30.04 M10.01 40.06 C5.58 39.51, -2.16 34.79, 0 30.04 M0 30.04 C0.19 25.11, 0.16 17.5, 0 10.01 M0 30.04 C0.95 22.68, -0.09 15.52, 0 10.01 M0 10.01 C0.05 2.45, 4.3 -0.47, 10.01 0 M0 10.01 C-0.18 5.13, 4.87 2.23, 10.01 0" stroke="#1e1e1e" stroke-width="1" fill="none"></path></g><g transform="translate(362.95908045835523 744.6686335972378) rotate(0 50.38995361328125 12.5)"><text x="50.38995361328125" y="0" font-family="Virgil, Segoe UI Emoji" font-size="20px" fill="#1e1e1e" text-anchor="middle" style="white-space: pre;" direction="ltr" dominant-baseline="text-before-edge">RustLexer</text></g><g stroke-linecap="round"><g transform="translate(413.6961332264019 727.2826099593228) rotate(0 -42.29327046762658 -43.89246228184844)"><path d="M-0.62 -0.8 C-14.76 -15.54, -71.05 -74.44, -85.51 -89.18 M1.26 1.4 C-12.88 -13.09, -71.49 -72.82, -85.85 -87.73" stroke="#1e1e1e" stroke-width="1" fill="none"></path></g></g><mask></mask><g stroke-linecap="round"><g transform="translate(248.3439961331361 451.4849427283258) rotate(0 -57.13719905448936 29.813778451693473)"><path d="M0.49 -0.92 C-18.58 9.23, -94.78 50.67, -114.23 60.55 M-0.72 1.21 C-19.89 11.09, -95.9 49.39, -114.76 59.05" stroke="#1e1e1e" stroke-width="1" fill="none"></path></g><g transform="translate(248.3439961331361 451.4849427283258) rotate(0 -57.13719905448936 29.813778451693473)"><path d="M-95.8 38.46 C-98.82 42.2, -108.91 51.07, -115.5 59.96 M-95.18 36.3 C-99.2 42.79, -106.47 48.89, -115.57 59.74" stroke="#1e1e1e" stroke-width="1" fill="none"></path></g><g transform="translate(248.3439961331361 451.4849427283258) rotate(0 -57.13719905448936 29.813778451693473)"><path d="M-86.51 56.76 C-92.41 54.76, -105.43 57.85, -115.5 59.96 M-85.9 54.59 C-92.44 56.05, -102.29 57.04, -115.57 59.74" stroke="#1e1e1e" stroke-width="1" fill="none"></path></g></g><mask></mask><g stroke-linecap="round"><g transform="translate(252.15803895908948 455.9533265173883) rotate(0 33.72166007196911 70.97485682388145)"><path d="M1.19 -0.8 C12.56 22.82, 56.14 118.85, 67.08 142.75 M0.36 1.4 C11.7 25.21, 55.31 117.92, 66.26 141.14" stroke="#1e1e1e" stroke-width="1" fill="none"></path></g><g transform="translate(252.15803895908948 455.9533265173883) rotate(0 33.72166007196911 70.97485682388145)"><path d="M43.64 120.42 C51.14 124.13, 55.24 127.13, 67.64 142.72 M45.41 120.48 C53.37 128.2, 61.87 136.35, 65.81 141.13" stroke="#1e1e1e" stroke-width="1" fill="none"></path></g><g transform="translate(252.15803895908948 455.9533265173883) rotate(0 33.72166007196911 70.97485682388145)"><path d="M62.2 111.68 C65.99 117.36, 66.29 122.14, 67.64 142.72 M63.97 111.73 C64.69 122.87, 65.89 134.46, 65.81 141.13" stroke="#1e1e1e" stroke-width="1" fill="none"></path></g></g><mask></mask><g stroke-linecap="round"><g transform="translate(835.2359895174686 454.6529221522644) rotate(0 115.69172772405844 -53.42673072502453)"><path d="M0.27 -0.55 C20.8 -15.17, 84.21 -70.39, 122.91 -88.4 C161.6 -106.42, 214.3 -105.34, 232.43 -108.63 M-1.04 1.77 C19.42 -13.09, 83.64 -71.66, 122.44 -89.91 C161.24 -108.16, 213.57 -104.87, 231.75 -107.75" stroke="#1e1e1e" stroke-width="0.5" fill="none"></path></g><g transform="translate(835.2359895174686 454.6529221522644) rotate(0 115.69172772405844 -53.42673072502453)"><path d="M203.42 -94.05 C214.04 -98.75, 218.38 -103.47, 231.21 -107.17 M204.39 -95.67 C209.82 -98.84, 216.46 -99.61, 232.1 -107.67" stroke="#1e1e1e" stroke-width="0.5" fill="none"></path></g><g transform="translate(835.2359895174686 454.6529221522644) rotate(0 115.69172772405844 -53.42673072502453)"><path d="M202.01 -114.52 C212.91 -113.49, 217.64 -112.48, 231.21 -107.17 M202.98 -116.14 C208.79 -115.08, 215.71 -111.63, 232.1 -107.67" stroke="#1e1e1e" stroke-width="0.5" fill="none"></path></g></g><mask></mask><g stroke-linecap="round"><g transform="translate(1148.0725548076473 706.2185611031572) rotate(0 -8.161916390811257 31.580554398528164)"><path d="M-0.49 -0.24 C-0.51 5.64, 3.27 25.05, 0.5 35.86 C-2.27 46.66, -14.22 59.87, -17.11 64.58 M1.46 -1.42 C1.18 4.04, 2.57 23.2, -0.65 33.91 C-3.86 44.63, -15.23 58.19, -17.85 62.86" stroke="#1e1e1e" stroke-width="0.5" fill="none"></path></g><g transform="translate(1148.0725548076473 706.2185611031572) rotate(0 -8.161916390811257 31.580554398528164)"><path d="M-14.13 46.23 C-14.69 52.51, -14.94 58.6, -16.82 63.5 M-13.76 47.1 C-15.15 50.1, -15.35 55.44, -17.15 62.55" stroke="#1e1e1e" stroke-width="0.5" fill="none"></path></g><g transform="translate(1148.0725548076473 706.2185611031572) rotate(0 -8.161916390811257 31.580554398528164)"><path d="M-4.74 52.61 C-8.64 56.58, -12.23 60.42, -16.82 63.5 M-4.36 53.47 C-8.15 54.84, -10.7 58.59, -17.15 62.55" stroke="#1e1e1e" stroke-width="0.5" fill="none"></path></g></g><mask></mask><g stroke-linecap="round" transform="translate(1014.4414500175069 858.3386815388997) rotate(0 91.54901123046875 20.0296630859375)"><path d="M10.01 0 M10.01 0 C64.72 0.78, 115.46 1.26, 173.08 0 M10.01 0 C56.38 0.53, 102.94 -0.22, 173.08 0 M173.08 0 C177.89 1.28, 181.6 1.75, 183.1 10.01 M173.08 0 C181.83 -1.63, 185.3 4.79, 183.1 10.01 M183.1 10.01 C182.77 14.97, 181.34 20.39, 183.1 30.04 M183.1 10.01 C183.04 16.48, 183.06 23.64, 183.1 30.04 M183.1 30.04 C183.92 38.42, 177.79 39.21, 173.08 40.06 M183.1 30.04 C185.17 35.72, 181.8 41.62, 173.08 40.06 M173.08 40.06 C132.75 41.19, 92.04 39.47, 10.01 40.06 M173.08 40.06 C111.41 41.6, 50.15 40.27, 10.01 40.06 M10.01 40.06 C2.64 38.94, -0.44 37.53, 0 30.04 M10.01 40.06 C2.49 39.49, -0.23 35.51, 0 30.04 M0 30.04 C-0.28 23.39, 0.75 14.43, 0 10.01 M0 30.04 C0.28 22.31, -0.43 13.88, 0 10.01 M0 10.01 C-1.36 5.22, 5.25 -1.3, 10.01 0 M0 10.01 C-1.43 4.81, 1.41 2.12, 10.01 0" stroke="#1e1e1e" stroke-width="1" fill="none"></path></g><g transform="translate(1043.5505198417256 865.8683446248372) rotate(0 62.43994140625 12.5)"><text x="62.43994140625" y="0" font-family="Virgil, Segoe UI Emoji" font-size="20px" fill="#1e1e1e" text-anchor="middle" style="white-space: pre;" direction="ltr" dominant-baseline="text-before-edge">TextLineImpl</text></g><g stroke-linecap="round" transform="translate(1100.4762832898052 774.9889421008884) rotate(0 13.4873046875 13.163528442382812)"><path d="M15.59 -0.93 C18.33 -0.93, 21.22 0.87, 23.22 2.89 C25.21 4.92, 27.47 8.11, 27.56 11.23 C27.65 14.34, 25.64 18.98, 23.77 21.58 C21.89 24.18, 18.86 26.24, 16.31 26.83 C13.76 27.41, 11.07 26.42, 8.46 25.11 C5.84 23.81, 1.97 21.64, 0.62 19 C-0.73 16.35, -0.36 12.17, 0.35 9.27 C1.07 6.36, 2.09 2.98, 4.9 1.57 C7.72 0.17, 15.06 0.87, 17.25 0.81 C19.44 0.75, 18.25 1.1, 18.06 1.23 M11.32 -0.62 C14.17 -1.25, 20.19 0.03, 22.96 2 C25.74 3.98, 27.68 8.58, 27.96 11.23 C28.24 13.88, 26.02 15.64, 24.64 17.88 C23.25 20.13, 22.13 23.63, 19.63 24.7 C17.13 25.77, 12.76 24.82, 9.66 24.29 C6.55 23.75, 2.36 23.46, 1.01 21.48 C-0.35 19.51, 1.03 15.28, 1.55 12.43 C2.07 9.58, 2.2 6.66, 4.12 4.4 C6.03 2.15, 11.68 -0.29, 13.05 -1.11 C14.41 -1.94, 12.37 -1.07, 12.28 -0.56" stroke="#1e1e1e" stroke-width="1" fill="none"></path></g><g transform="translate(1135.8334610241802 775.286702110654) rotate(0 43.09996032714844 12.5)"><text x="0" y="0" font-family="Virgil, Segoe UI Emoji" font-size="20px" fill="#1e1e1e" text-anchor="start" style="white-space: pre;" direction="ltr" dominant-baseline="text-before-edge">TextLine</text></g><g stroke-linecap="round"><g transform="translate(1111.3804145615595 850.5301850012274) rotate(0 -0.35533485822293187 -20.840039989996527)"><path d="M-0.71 1.16 C-1.05 -5.7, -1.66 -33.94, -1.83 -40.86 M1.12 0.73 C1.12 -6.55, 0.36 -35.67, 0.26 -42.84" stroke="#1e1e1e" stroke-width="1" fill="none"></path></g></g><mask></mask><g stroke-linecap="round" transform="translate(830.7153520023122 1005.8674116588774) rotate(0 91.54901123046875 20.0296630859375)"><path d="M10.01 0 M10.01 0 C62.26 2.43, 115.54 -1.47, 173.08 0 M10.01 0 C56.12 2.12, 103.02 2.19, 173.08 0 M173.08 0 C179.51 -1.95, 182.63 1.95, 183.1 10.01 M173.08 0 C180.3 1.14, 185.17 1.7, 183.1 10.01 M183.1 10.01 C184.35 15.19, 184.47 22.86, 183.1 30.04 M183.1 10.01 C183.67 14.54, 182.38 19.47, 183.1 30.04 M183.1 30.04 C184.33 36.05, 178.79 41.08, 173.08 40.06 M183.1 30.04 C181.65 35.19, 179.56 41.68, 173.08 40.06 M173.08 40.06 C135.2 41.32, 99.71 41.71, 10.01 40.06 M173.08 40.06 C123.9 38.83, 73.96 38.61, 10.01 40.06 M10.01 40.06 C2.38 41.21, 0.78 38.42, 0 30.04 M10.01 40.06 C3.24 41.87, 0.2 38.66, 0 30.04 M0 30.04 C-1.39 26.23, 1.3 23.21, 0 10.01 M0 30.04 C0.16 23.39, -0.1 17.2, 0 10.01 M0 10.01 C1.49 2.45, 2.66 1.96, 10.01 0 M0 10.01 C0.93 4.24, 5.53 0.24, 10.01 0" stroke="#1e1e1e" stroke-width="1" fill="none"></path></g><g transform="translate(847.5544251834646 1013.3970747448149) rotate(0 74.7099380493164 12.5)"><text x="74.7099380493164" y="0" font-family="Virgil, Segoe UI Emoji" font-size="20px" fill="#1e1e1e" text-anchor="middle" style="white-space: pre;" direction="ltr" dominant-baseline="text-before-edge">TextRunRecord</text></g><g stroke-linecap="round" transform="translate(916.7501852746105 922.5176722208661) rotate(0 13.4873046875 13.163528442382812)"><path d="M8.75 0.37 C11.47 -0.72, 15.51 -0.44, 18.03 0.46 C20.54 1.36, 22.48 3.35, 23.83 5.78 C25.19 8.2, 26.29 12.03, 26.18 15.02 C26.07 18.01, 25.28 21.87, 23.16 23.71 C21.05 25.55, 16.43 26.21, 13.46 26.06 C10.5 25.91, 7.45 24.5, 5.37 22.81 C3.29 21.12, 1.5 18.39, 0.96 15.94 C0.43 13.48, 0.88 10.65, 2.16 8.08 C3.45 5.52, 7.36 1.69, 8.66 0.54 C9.96 -0.6, 9.84 1.11, 9.97 1.23 M11.67 0.81 C14.08 0.34, 17.89 -0.25, 20.35 1.43 C22.81 3.11, 25.71 7.8, 26.41 10.9 C27.11 14, 25.81 17.79, 24.57 20.04 C23.33 22.29, 21.23 23.38, 18.97 24.4 C16.7 25.43, 13.51 26.82, 10.97 26.2 C8.43 25.58, 5.53 23.16, 3.74 20.7 C1.95 18.23, 0.1 14.36, 0.22 11.39 C0.34 8.41, 2.47 4.93, 4.47 2.83 C6.47 0.73, 10.99 -0.96, 12.2 -1.24 C13.4 -1.51, 11.55 0.53, 11.7 1.17" stroke="#1e1e1e" stroke-width="1" fill="none"></path></g><g transform="translate(952.1073630089855 922.8154322306317) rotate(0 41.90996551513672 12.5)"><text x="0" y="0" font-family="Virgil, Segoe UI Emoji" font-size="20px" fill="#1e1e1e" text-anchor="start" style="white-space: pre;" direction="ltr" dominant-baseline="text-before-edge">TextRun</text></g><g stroke-linecap="round"><g transform="translate(927.654085012485 998.0589151212052) rotate(0 -0.15277097663761197 -20.785484905442843)"><path d="M-0.88 0.62 C-0.96 -5.92, -1.47 -33.28, -1.46 -40.43 M0.87 -0.1 C1.25 -6.88, 1.25 -35.27, 0.84 -42.19" stroke="#1e1e1e" stroke-width="1" fill="none"></path></g></g><mask></mask><g stroke-linecap="round"><g transform="translate(1006.1641498640474 878.1886046243626) rotate(0 -25.825569600623083 16.766411654579315)"><path d="M-1.18 -1.04 C-9.89 4.57, -43.09 28.52, -51.69 34.57 M0.4 1.03 C-8.42 6.17, -43.07 27.17, -52.05 32.56" stroke="#1e1e1e" stroke-width="1" fill="none"></path></g><g transform="translate(1006.1641498640474 878.1886046243626) rotate(0 -25.825569600623083 16.766411654579315)"><path d="M-3.45 -9.02 C-1.84 -9.59, 0.61 -8.55, 2.29 -7.95 C3.98 -7.36, 6.03 -6.88, 6.66 -5.44 C7.29 -4, 6.37 -1.09, 6.07 0.71 C5.77 2.51, 5.95 4.27, 4.85 5.35 C3.74 6.43, 1.27 7.1, -0.56 7.21 C-2.38 7.31, -4.64 7.04, -6.09 5.97 C-7.55 4.9, -8.9 2.47, -9.28 0.79 C-9.66 -0.9, -9.27 -2.52, -8.36 -4.15 C-7.44 -5.78, -4.99 -8.05, -3.78 -9 C-2.57 -9.95, -1.23 -9.83, -1.1 -9.86 M1.85 -8.7 C3.26 -7.93, 3.78 -6, 4.76 -4.61 C5.73 -3.22, 7.56 -1.8, 7.7 -0.37 C7.84 1.07, 7.29 2.89, 5.6 4.02 C3.92 5.15, -0.21 5.98, -2.41 6.4 C-4.61 6.83, -6.2 7.52, -7.58 6.56 C-8.97 5.6, -10.6 2.44, -10.71 0.65 C-10.82 -1.15, -9.2 -2.6, -8.26 -4.19 C-7.31 -5.79, -6.58 -8.15, -5.03 -8.92 C-3.48 -9.69, 0.14 -8.68, 1.05 -8.8 C1.96 -8.93, 0.35 -9.94, 0.43 -9.68" stroke="none" stroke-width="0" fill="#1e1e1e"></path></g><g transform="translate(1006.1641498640474 878.1886046243626) rotate(0 -25.825569600623083 16.766411654579315)"><path d="M-34.94 11.07 C-39.24 17.22, -44.65 24.85, -51.89 31.09 M-33.41 9.94 C-39.55 14.77, -43.24 22.2, -52.25 33.44" stroke="#1e1e1e" stroke-width="1" fill="none"></path></g><g transform="translate(1006.1641498640474 878.1886046243626) rotate(0 -25.825569600623083 16.766411654579315)"><path d="M-24.34 28.64 C-32.46 28.58, -41.56 30.1, -51.89 31.09 M-22.81 27.51 C-31.78 27.4, -38.44 29.91, -52.25 33.44" stroke="#1e1e1e" stroke-width="1" fill="none"></path></g></g><mask></mask><g stroke-linecap="round" transform="translate(57.988987684917504 167.97447604224777) rotate(0 100.56015450613837 19.826202392578125)"><path d="M9.91 0 M9.91 0 C52.59 -0.41, 93.13 -1.7, 191.21 0 M9.91 0 C71.36 1.74, 134.36 1.06, 191.21 0 M191.21 0 C199.06 1.62, 200.33 2.55, 201.12 9.91 M191.21 0 C195.6 -1.76, 198.86 2.96, 201.12 9.91 M201.12 9.91 C202.93 14.07, 201.05 21.76, 201.12 29.74 M201.12 9.91 C201.18 14.51, 201.71 18.4, 201.12 29.74 M201.12 29.74 C201.53 37.97, 198.13 38.64, 191.21 39.65 M201.12 29.74 C202.09 37.58, 196.06 39.7, 191.21 39.65 M191.21 39.65 C152.52 40.46, 111.37 38.26, 9.91 39.65 M191.21 39.65 C124.28 39.39, 55.91 40.52, 9.91 39.65 M9.91 39.65 C3.18 41.37, 0.62 35.87, 0 29.74 M9.91 39.65 C3.87 37.85, 0.23 34.46, 0 29.74 M0 29.74 C1.23 23.47, 0.09 13.68, 0 9.91 M0 29.74 C-0.64 23.38, 0.33 18.12, 0 9.91 M0 9.91 C-1.05 1.77, 5.01 -0.83, 9.91 0 M0 9.91 C0.94 1.72, 4.76 0.53, 9.91 0" stroke="#1e1e1e" stroke-width="1" fill="none"></path></g><g transform="translate(70.75922519886836 175.3006784348259) rotate(0 87.7899169921875 12.5)"><text x="87.7899169921875" y="0" font-family="Virgil, Segoe UI Emoji" font-size="20px" fill="#1e1e1e" text-anchor="middle" style="white-space: pre;" direction="ltr" dominant-baseline="text-before-edge">StyledTextRecord</text></g><g stroke-linecap="round" transform="translate(279.31310180322123 166.6569450015112) rotate(0 100.56015450613837 19.826202392578125)"><path d="M9.91 0 M9.91 0 C80.56 0.5, 151.08 1, 191.21 0 M9.91 0 C49.03 0.75, 86.24 0.64, 191.21 0 M191.21 0 C199.15 -1.98, 202.32 1.55, 201.12 9.91 M191.21 0 C195.62 1.04, 199.85 3.85, 201.12 9.91 M201.12 9.91 C201.16 16.16, 201.83 26.29, 201.12 29.74 M201.12 9.91 C201.87 14.72, 201.06 21.52, 201.12 29.74 M201.12 29.74 C199.77 35.03, 199.2 41.33, 191.21 39.65 M201.12 29.74 C200.87 35.9, 198.35 38.74, 191.21 39.65 M191.21 39.65 C122.54 38.85, 56.28 40.23, 9.91 39.65 M191.21 39.65 C146.06 40.76, 101.53 42.03, 9.91 39.65 M9.91 39.65 C2.4 37.91, -0.08 35.55, 0 29.74 M9.91 39.65 C3.62 37.72, -1.66 34.73, 0 29.74 M0 29.74 C-1.73 25.1, -0.66 17.74, 0 9.91 M0 29.74 C0.49 23.62, 0.48 16.07, 0 9.91 M0 9.91 C-1.25 2.1, 1.92 -0.89, 9.91 0 M0 9.91 C-0.99 2.82, 1.57 -0.64, 9.91 0" stroke="#1e1e1e" stroke-width="1" fill="none"></path></g><g transform="translate(308.0433307722502 173.98314739408931) rotate(0 71.82992553710938 12.5)"><text x="71.82992553710938" y="0" font-family="Virgil, Segoe UI Emoji" font-size="20px" fill="#1e1e1e" text-anchor="middle" style="white-space: pre;" direction="ltr" dominant-baseline="text-before-edge">StyledSubText</text></g><g stroke-linecap="round" transform="translate(249.23744400409078 86.41158439999538) rotate(0 13.4873046875 13.163528442382812)"><path d="M19.68 1.39 C22.38 2.49, 24.44 5.43, 25.73 7.83 C27.02 10.22, 28.19 13.27, 27.43 15.75 C26.68 18.23, 23.78 21.13, 21.21 22.72 C18.64 24.32, 14.85 25.31, 12 25.33 C9.15 25.34, 6.22 24.42, 4.12 22.82 C2.02 21.22, -0.46 18.69, -0.62 15.72 C-0.78 12.76, 1.47 7.57, 3.17 5.03 C4.88 2.49, 6.79 1.02, 9.6 0.46 C12.41 -0.1, 17.78 1.06, 20.05 1.65 C22.32 2.24, 23.14 3.62, 23.22 4.01 M14.04 -0.76 C16.84 -0.93, 21.09 2.09, 23.02 4.08 C24.96 6.08, 25.54 8.65, 25.67 11.21 C25.81 13.78, 25.3 16.89, 23.83 19.47 C22.35 22.06, 19.12 25.68, 16.82 26.73 C14.53 27.78, 12.63 26.79, 10.07 25.76 C7.52 24.73, 3.09 22.98, 1.5 20.54 C-0.09 18.1, -0.15 14.32, 0.51 11.14 C1.18 7.96, 3.5 3.27, 5.5 1.47 C7.5 -0.34, 11.14 0.27, 12.51 0.29 C13.87 0.3, 13.42 1.44, 13.7 1.55" stroke="#1e1e1e" stroke-width="1" fill="none"></path></g><g transform="translate(284.5946217384658 86.709344409761) rotate(0 54.98994445800781 12.5)"><text x="0" y="0" font-family="Virgil, Segoe UI Emoji" font-size="20px" fill="#1e1e1e" text-anchor="start" style="white-space: pre;" direction="ltr" dominant-baseline="text-before-edge">StyledText</text></g><g stroke-linecap="round"><g transform="translate(194.90300800630064 160.1659795045756) rotate(0 24.821025488840775 -24.448592282292793)"><path d="M-0.72 1.08 C7.51 -6.82, 41.79 -39.93, 50.37 -47.99 M1.1 0.6 C9.12 -7.64, 41.43 -41.69, 49.63 -49.98" stroke="#1e1e1e" stroke-width="1" fill="none"></path></g></g><mask></mask><g stroke-linecap="round" transform="translate(253.11742418219717 10) rotate(0 13.4873046875 13.163528442382812)"><path d="M12.75 -0.15 C15.51 -0.46, 18.36 0.5, 20.53 2.29 C22.7 4.07, 24.99 7.82, 25.77 10.54 C26.55 13.27, 26.16 16.37, 25.19 18.66 C24.23 20.95, 22.59 22.95, 20 24.3 C17.42 25.64, 12.59 27.4, 9.69 26.72 C6.8 26.03, 4.25 22.61, 2.65 20.16 C1.05 17.72, -0.21 14.77, 0.09 12.04 C0.4 9.31, 2.17 5.64, 4.48 3.78 C6.78 1.93, 12.14 1.64, 13.93 0.9 C15.71 0.16, 15.36 -0.88, 15.18 -0.66 M14.69 0.17 C17.84 0.39, 23.01 3.12, 24.99 5.51 C26.96 7.89, 26.65 12.05, 26.55 14.47 C26.45 16.89, 26.31 18.02, 24.4 20.04 C22.49 22.06, 17.99 25.81, 15.09 26.6 C12.18 27.4, 9.4 26.48, 6.99 24.81 C4.57 23.14, 1.51 19.26, 0.6 16.59 C-0.31 13.92, 0.43 11.11, 1.52 8.81 C2.62 6.51, 4.8 4.03, 7.16 2.79 C9.53 1.55, 14.18 1.8, 15.7 1.35 C17.22 0.89, 16.58 -0.08, 16.3 0.07" stroke="#1e1e1e" stroke-width="1" fill="none"></path></g><g transform="translate(288.47460191657217 10.297760009765625) rotate(0 30.20996856689453 12.5)"><text x="0" y="0" font-family="Virgil, Segoe UI Emoji" font-size="20px" fill="#1e1e1e" text-anchor="start" style="white-space: pre;" direction="ltr" dominant-baseline="text-before-edge">Styled</text></g><g stroke-linecap="round"><g transform="translate(375.610866693294 162.29024194060662) rotate(0 -45.55421966239187 -21.287145261355704)"><path d="M1.14 -0.37 C-14.23 -7.34, -76.64 -35.35, -92.24 -42.2 M0.27 -1.62 C-14.72 -8.37, -74.93 -33.82, -90.02 -40.82" stroke="#1e1e1e" stroke-width="1" fill="none"></path></g></g><mask></mask><g stroke-linecap="round"><g transform="translate(261.6266470255674 79.89548032773314) rotate(0 4.092268316536519 -19.835299857938367)"><path d="M0.54 0.45 C1.94 -6.04, 7.53 -31.63, 8.82 -38.22 M-0.63 -0.36 C0.62 -7.29, 6.82 -33.86, 8.18 -40.12" stroke="#1e1e1e" stroke-width="1" fill="none"></path></g></g><mask></mask><g stroke-linecap="round"><g transform="translate(503.61555830070296 312.7463304215924) rotate(0 -45.75456406921713 -106.91403182943387)"><path d="M1.18 -0.63 C-3.23 -30.41, -9.91 -142.63, -25.55 -178.43 C-41.2 -214.24, -81.59 -209.45, -92.69 -215.48 M0.34 1.65 C-4.33 -28.5, -11.55 -144.22, -26.67 -180.24 C-41.79 -216.27, -79.46 -208.98, -90.38 -214.51" stroke="#1e1e1e" stroke-width="0.5" fill="none"></path></g><g transform="translate(503.61555830070296 312.7463304215924) rotate(0 -45.75456406921713 -106.91403182943387)"><path d="M-61.81 -219.8 C-70.86 -219.02, -84.06 -216.32, -90.04 -214.57 M-60.69 -219.76 C-70.6 -217.7, -79.33 -216.48, -90.25 -214.19" stroke="#1e1e1e" stroke-width="0.5" fill="none"></path></g><g transform="translate(503.61555830070296 312.7463304215924) rotate(0 -45.75456406921713 -106.91403182943387)"><path d="M-65.69 -199.65 C-73.33 -206.47, -85.07 -211.32, -90.04 -214.57 M-64.57 -199.6 C-73.2 -203.8, -80.73 -208.82, -90.25 -214.19" stroke="#1e1e1e" stroke-width="0.5" fill="none"></path></g></g><mask></mask><g transform="translate(598.7794191162793 941.9983455113004) rotate(0 117.1875 9.599999999999994)"><text x="0" y="0" font-family="Cascadia, Segoe UI Emoji" font-size="16px" fill="#1e1e1e" text-anchor="start" style="white-space: pre;" direction="ltr" dominant-baseline="text-before-edge">com.sun.javafx.scene.text</text></g><g stroke-linecap="round"><g transform="translate(639.6916954881075 841.094056149085) rotate(0 -35.27199100101356 34.214348771269556)"><path d="M0.92 -0.35 C-10.87 11.16, -59.07 56.79, -71.13 68.4 M-0.05 -1.57 C-11.86 10.21, -59.52 58.49, -71.46 70" stroke="#1e1e1e" stroke-width="1" fill="none"></path></g><g transform="translate(639.6916954881075 841.094056149085) rotate(0 -35.27199100101356 34.214348771269556)"><path d="M-59.25 44.81 C-62.02 51.66, -63.92 57.66, -70.27 71.66 M-59.53 42.29 C-62.57 52.43, -67.28 60.33, -71.98 69.12" stroke="#1e1e1e" stroke-width="1" fill="none"></path></g><g transform="translate(639.6916954881075 841.094056149085) rotate(0 -35.27199100101356 34.214348771269556)"><path d="M-44.8 59.38 C-51.34 62.46, -57.09 64.57, -70.27 71.66 M-45.08 56.86 C-52.91 62.1, -62.39 65.19, -71.98 69.12" stroke="#1e1e1e" stroke-width="1" fill="none"></path></g></g><mask></mask><g transform="translate(151.41700979708276 361.4431993756975) rotate(0 14 16.799999999999997)"><text x="0" y="0" font-family="Cascadia, Segoe UI Emoji" font-size="28px" fill="#1e1e1e" text-anchor="start" style="white-space: pre;" direction="ltr" dominant-baseline="text-before-edge">①</text></g><g transform="translate(433.4554793841364 490.64573320661265) rotate(0 14 16.8)"><text x="0" y="0" font-family="Cascadia, Segoe UI Emoji" font-size="28px" fill="#1e1e1e" text-anchor="start" style="white-space: pre;" direction="ltr" dominant-baseline="text-before-edge">②</text></g><g transform="translate(849.7246618618152 589.8094643729073) rotate(0 14 16.8)"><text x="0" y="0" font-family="Cascadia, Segoe UI Emoji" font-size="28px" fill="#1e1e1e" text-anchor="start" style="white-space: pre;" direction="ltr" dominant-baseline="text-before-edge">③</text></g></svg>
